<svg width="136" height="96" viewBox="0 0 136 96" fill="none" xmlns="http://www.w3.org/2000/svg">
<g clip-path="url(#clip0_3066_5260)">
<g clip-path="url(#clip1_3066_5260)">
<path d="M76.5056 35.9487H82.4577C82.737 35.9489 83.0115 36.0194 83.2554 36.1536C83.4992 36.2878 83.7043 36.4813 83.851 36.7156C83.9978 36.9499 84.0814 37.2174 84.094 37.4925C84.1066 37.7677 84.0476 38.0415 83.9228 38.2879L80.5895 44.8655C80.4631 45.1148 80.2735 45.3276 80.0392 45.4832C79.8048 45.6389 79.5336 45.7321 79.252 45.7539C78.9703 45.7757 78.6877 45.7253 78.4316 45.6076C78.1755 45.4899 77.9546 45.3089 77.7904 45.0821L74.3096 40.281" stroke="#7A7A7A" stroke-width="2" stroke-linecap="round" stroke-linejoin="round"/>
<path d="M77.0888 31.1852C77.4772 31.377 77.7726 31.713 77.9099 32.1195C78.0473 32.526 78.0154 32.9696 77.8214 33.353L72.7312 43.3932C72.6349 43.5832 72.5017 43.7525 72.339 43.8916C72.1764 44.0307 71.9876 44.1369 71.7833 44.204C71.5791 44.2711 71.3635 44.2978 71.1488 44.2827C70.934 44.2676 70.7244 44.2109 70.5319 44.1158L54.9715 36.4341C53.8412 35.8725 52.9825 34.8922 52.5833 33.7076C52.184 32.5231 52.2767 31.2307 52.841 30.1134L55.1026 25.6033C55.3845 25.0492 55.7742 24.5553 56.2496 24.1498C56.7251 23.7443 57.2768 23.4351 57.8733 23.2399C58.4699 23.0448 59.0996 22.9675 59.7264 23.0124C60.3533 23.0573 60.965 23.2236 61.5267 23.5018L77.0888 31.1852Z" stroke="#7A7A7A" stroke-width="2" stroke-linecap="round" stroke-linejoin="round"/>
<path d="M52.3335 47.2645H58.4954C59.1062 47.2687 59.7061 47.1044 60.2273 46.7902C60.7486 46.476 61.1704 46.0244 61.4453 45.4863L63.8051 40.7983" stroke="#7A7A7A" stroke-width="2" stroke-linecap="round" stroke-linejoin="round"/>
<path d="M52.3335 50.4974V44.0312" stroke="#7A7A7A" stroke-width="2" stroke-linecap="round" stroke-linejoin="round"/>
<path d="M60.542 28.75H60.5562" stroke="#7A7A7A" stroke-width="2" stroke-linecap="round" stroke-linejoin="round"/>
</g>
<path d="M29.7596 70H28.5267C28.4538 69.6454 28.3262 69.3338 28.1439 69.0653C27.9649 68.7969 27.7461 68.5715 27.4876 68.3892C27.2324 68.2036 26.949 68.0644 26.6375 67.9716C26.3259 67.8788 26.0011 67.8324 25.663 67.8324C25.0466 67.8324 24.4881 67.9882 23.9876 68.2997C23.4905 68.6113 23.0944 69.0703 22.7994 69.6768C22.5077 70.2834 22.3619 71.0275 22.3619 71.9091C22.3619 72.7907 22.5077 73.5348 22.7994 74.1413C23.0944 74.7479 23.4905 75.2069 23.9876 75.5185C24.4881 75.83 25.0466 75.9858 25.663 75.9858C26.0011 75.9858 26.3259 75.9394 26.6375 75.8466C26.949 75.7538 27.2324 75.6162 27.4876 75.4339C27.7461 75.2483 27.9649 75.0213 28.1439 74.7528C28.3262 74.4811 28.4538 74.1695 28.5267 73.8182H29.7596C29.6668 74.3385 29.4978 74.8042 29.2525 75.2152C29.0073 75.6262 28.7023 75.9759 28.3378 76.2642C27.9732 76.5492 27.5638 76.7663 27.1098 76.9155C26.659 77.0646 26.1768 77.1392 25.663 77.1392C24.7947 77.1392 24.0224 76.9271 23.3463 76.5028C22.6701 76.0786 22.1382 75.4754 21.7504 74.6932C21.3626 73.911 21.1687 72.983 21.1687 71.9091C21.1687 70.8352 21.3626 69.9072 21.7504 69.125C22.1382 68.3428 22.6701 67.7396 23.3463 67.3153C24.0224 66.8911 24.7947 66.679 25.663 66.679C26.1768 66.679 26.659 66.7536 27.1098 66.9027C27.5638 67.0518 27.9732 67.2706 28.3378 67.5589C28.7023 67.844 29.0073 68.192 29.2525 68.603C29.4978 69.0107 29.6668 69.4763 29.7596 70ZM39.9452 70H38.7122C38.6393 69.6454 38.5117 69.3338 38.3294 69.0653C38.1504 68.7969 37.9317 68.5715 37.6732 68.3892C37.418 68.2036 37.1346 68.0644 36.823 67.9716C36.5115 67.8788 36.1867 67.8324 35.8486 67.8324C35.2321 67.8324 34.6736 67.9882 34.1732 68.2997C33.676 68.6113 33.2799 69.0703 32.985 69.6768C32.6933 70.2834 32.5475 71.0275 32.5475 71.9091C32.5475 72.7907 32.6933 73.5348 32.985 74.1413C33.2799 74.7479 33.676 75.2069 34.1732 75.5185C34.6736 75.83 35.2321 75.9858 35.8486 75.9858C36.1867 75.9858 36.5115 75.9394 36.823 75.8466C37.1346 75.7538 37.418 75.6162 37.6732 75.4339C37.9317 75.2483 38.1504 75.0213 38.3294 74.7528C38.5117 74.4811 38.6393 74.1695 38.7122 73.8182H39.9452C39.8524 74.3385 39.6833 74.8042 39.4381 75.2152C39.1928 75.6262 38.8879 75.9759 38.5233 76.2642C38.1587 76.5492 37.7494 76.7663 37.2953 76.9155C36.8446 77.0646 36.3623 77.1392 35.8486 77.1392C34.9802 77.1392 34.208 76.9271 33.5318 76.5028C32.8557 76.0786 32.3237 75.4754 31.9359 74.6932C31.5482 73.911 31.3543 72.983 31.3543 71.9091C31.3543 70.8352 31.5482 69.9072 31.9359 69.125C32.3237 68.3428 32.8557 67.7396 33.5318 67.3153C34.208 66.8911 34.9802 66.679 35.8486 66.679C36.3623 66.679 36.8446 66.7536 37.2953 66.9027C37.7494 67.0518 38.1587 67.2706 38.5233 67.5589C38.8879 67.844 39.1928 68.192 39.4381 68.603C39.6833 69.0107 39.8524 69.4763 39.9452 70ZM41.3807 67.9119V66.8182H49.0171V67.9119H45.8154V77H44.5824V67.9119H41.3807ZM51.3376 66.8182L54.3603 75.3892H54.4796L57.5024 66.8182H58.795L55.0563 77H53.7836L50.045 66.8182H51.3376ZM72.5116 70H71.2786C71.2057 69.6454 71.0781 69.3338 70.8958 69.0653C70.7168 68.7969 70.4981 68.5715 70.2396 68.3892C69.9844 68.2036 69.701 68.0644 69.3894 67.9716C69.0779 67.8788 68.7531 67.8324 68.415 67.8324C67.7985 67.8324 67.24 67.9882 66.7396 68.2997C66.2424 68.6113 65.8463 69.0703 65.5514 69.6768C65.2597 70.2834 65.1139 71.0275 65.1139 71.9091C65.1139 72.7907 65.2597 73.5348 65.5514 74.1413C65.8463 74.7479 66.2424 75.2069 66.7396 75.5185C67.24 75.83 67.7985 75.9858 68.415 75.9858C68.7531 75.9858 69.0779 75.9394 69.3894 75.8466C69.701 75.7538 69.9844 75.6162 70.2396 75.4339C70.4981 75.2483 70.7168 75.0213 70.8958 74.7528C71.0781 74.4811 71.2057 74.1695 71.2786 73.8182H72.5116C72.4188 74.3385 72.2497 74.8042 72.0045 75.2152C71.7592 75.6262 71.4543 75.9759 71.0897 76.2642C70.7251 76.5492 70.3158 76.7663 69.8617 76.9155C69.411 77.0646 68.9287 77.1392 68.415 77.1392C67.5466 77.1392 66.7744 76.9271 66.0982 76.5028C65.4221 76.0786 64.8901 75.4754 64.5024 74.6932C64.1146 73.911 63.9207 72.983 63.9207 71.9091C63.9207 70.8352 64.1146 69.9072 64.5024 69.125C64.8901 68.3428 65.4221 67.7396 66.0982 67.3153C66.7744 66.8911 67.5466 66.679 68.415 66.679C68.9287 66.679 69.411 66.7536 69.8617 66.9027C70.3158 67.0518 70.7251 67.2706 71.0897 67.5589C71.4543 67.844 71.7592 68.192 72.0045 68.603C72.2497 69.0107 72.4188 69.4763 72.5116 70ZM76.592 77.179C76.1081 77.179 75.669 77.0878 75.2745 76.9055C74.8801 76.7199 74.5669 76.4531 74.3349 76.1051C74.1029 75.7538 73.9869 75.3295 73.9869 74.8324C73.9869 74.3949 74.0731 74.0402 74.2454 73.7685C74.4178 73.4934 74.6481 73.2779 74.9365 73.1222C75.2248 72.9664 75.543 72.8504 75.891 72.7741C76.2424 72.6946 76.5953 72.6316 76.95 72.5852C77.414 72.5256 77.7902 72.4808 78.0785 72.451C78.3702 72.4179 78.5823 72.3632 78.7149 72.2869C78.8508 72.2107 78.9187 72.0781 78.9187 71.8892V71.8494C78.9187 71.3589 78.7845 70.9777 78.516 70.706C78.2509 70.4342 77.8482 70.2983 77.3079 70.2983C76.7478 70.2983 76.3086 70.4209 75.9905 70.6662C75.6723 70.9115 75.4486 71.1733 75.3193 71.4517L74.2057 71.054C74.4045 70.59 74.6697 70.2287 75.0011 69.9702C75.3359 69.7083 75.7004 69.526 76.0949 69.4233C76.4926 69.3172 76.8837 69.2642 77.2682 69.2642C77.5134 69.2642 77.7951 69.294 78.1133 69.3537C78.4348 69.41 78.7447 69.5277 79.043 69.7067C79.3446 69.8857 79.5949 70.1558 79.7937 70.517C79.9926 70.8783 80.092 71.3622 80.092 71.9688V77H78.9187V75.9659H78.8591C78.7795 76.1316 78.6469 76.3089 78.4613 76.4979C78.2757 76.6868 78.0288 76.8475 77.7206 76.9801C77.4123 77.1127 77.0361 77.179 76.592 77.179ZM76.771 76.125C77.235 76.125 77.6261 76.0339 77.9443 75.8516C78.2658 75.6693 78.5077 75.4339 78.6701 75.1456C78.8359 74.8572 78.9187 74.554 78.9187 74.2358V73.1619C78.869 73.2216 78.7596 73.2763 78.5906 73.326C78.4249 73.3724 78.2326 73.4138 78.0139 73.4503C77.7985 73.4834 77.588 73.5133 77.3825 73.5398C77.1803 73.563 77.0163 73.5829 76.8903 73.5994C76.5854 73.6392 76.3004 73.7038 76.0352 73.7933C75.7734 73.8795 75.5612 74.0104 75.3988 74.1861C75.2397 74.3584 75.1602 74.5937 75.1602 74.892C75.1602 75.2997 75.311 75.608 75.6126 75.8168C75.9175 76.0223 76.3037 76.125 76.771 76.125ZM82.2335 77V69.3636H83.3671V70.5568H83.4665C83.6256 70.1491 83.8824 69.8326 84.2371 69.6072C84.5917 69.3786 85.0176 69.2642 85.5148 69.2642C86.0186 69.2642 86.4378 69.3786 86.7726 69.6072C87.1107 69.8326 87.3742 70.1491 87.5631 70.5568H87.6426C87.8382 70.1624 88.1315 69.8492 88.5226 69.6172C88.9137 69.3819 89.3827 69.2642 89.9296 69.2642C90.6123 69.2642 91.1708 69.478 91.605 69.9055C92.0392 70.3298 92.2563 70.991 92.2563 71.8892V77H91.083V71.8892C91.083 71.3258 90.9288 70.9231 90.6206 70.6811C90.3124 70.4392 89.9494 70.3182 89.5318 70.3182C88.9949 70.3182 88.5789 70.4806 88.284 70.8054C87.989 71.1269 87.8415 71.5346 87.8415 72.0284V77H86.6483V71.7699C86.6483 71.3357 86.5074 70.986 86.2257 70.7209C85.944 70.4524 85.5811 70.3182 85.1369 70.3182C84.832 70.3182 84.547 70.3994 84.2818 70.5618C84.02 70.7242 83.8079 70.9496 83.6455 71.2379C83.4864 71.523 83.4068 71.8527 83.4068 72.2273V77H82.2335ZM97.6032 77.1591C96.8674 77.1591 96.2327 76.9967 95.6991 76.6719C95.1688 76.3438 94.7595 75.8864 94.4711 75.2997C94.1861 74.7098 94.0435 74.0237 94.0435 73.2415C94.0435 72.4593 94.1861 71.7699 94.4711 71.1733C94.7595 70.5734 95.1605 70.1061 95.6742 69.7713C96.1913 69.4332 96.7945 69.2642 97.4839 69.2642C97.8816 69.2642 98.2744 69.3305 98.6622 69.4631C99.0499 69.5956 99.4029 69.8111 99.7211 70.1094C100.039 70.4044 100.293 70.7955 100.482 71.2827C100.671 71.7699 100.765 72.3698 100.765 73.0824V73.5795H94.8788V72.5653H99.572C99.572 72.1345 99.4858 71.75 99.3134 71.4119C99.1444 71.0739 98.9024 70.8071 98.5876 70.6115C98.276 70.416 97.9081 70.3182 97.4839 70.3182C97.0166 70.3182 96.6122 70.4342 96.2708 70.6662C95.9328 70.8949 95.6726 71.1932 95.4903 71.5611C95.308 71.929 95.2168 72.3234 95.2168 72.7443V73.4205C95.2168 73.9972 95.3163 74.486 95.5151 74.8871C95.7173 75.2848 95.9974 75.5881 96.3553 75.7969C96.7133 76.0024 97.1292 76.1051 97.6032 76.1051C97.9114 76.1051 98.1899 76.062 98.4384 75.9759C98.6903 75.8864 98.9074 75.7538 99.0897 75.5781C99.272 75.3991 99.4129 75.1771 99.5123 74.9119L100.646 75.2301C100.527 75.6146 100.326 75.9527 100.044 76.2443C99.7625 76.5327 99.4145 76.758 99.0002 76.9205C98.5859 77.0795 98.1203 77.1591 97.6032 77.1591ZM102.55 77V69.3636H103.683V70.517H103.763C103.902 70.1392 104.154 69.8326 104.519 69.5973C104.883 69.362 105.294 69.2443 105.752 69.2443C105.838 69.2443 105.946 69.246 106.075 69.2493C106.204 69.2526 106.302 69.2576 106.368 69.2642V70.4574C106.328 70.4474 106.237 70.4325 106.095 70.4126C105.955 70.3894 105.808 70.3778 105.652 70.3778C105.281 70.3778 104.95 70.4557 104.658 70.6115C104.37 70.764 104.141 70.9761 103.972 71.2479C103.806 71.5163 103.723 71.8229 103.723 72.1676V77H102.55ZM110.006 77.179C109.522 77.179 109.083 77.0878 108.689 76.9055C108.294 76.7199 107.981 76.4531 107.749 76.1051C107.517 75.7538 107.401 75.3295 107.401 74.8324C107.401 74.3949 107.487 74.0402 107.659 73.7685C107.832 73.4934 108.062 73.2779 108.351 73.1222C108.639 72.9664 108.957 72.8504 109.305 72.7741C109.656 72.6946 110.009 72.6316 110.364 72.5852C110.828 72.5256 111.204 72.4808 111.493 72.451C111.784 72.4179 111.996 72.3632 112.129 72.2869C112.265 72.2107 112.333 72.0781 112.333 71.8892V71.8494C112.333 71.3589 112.199 70.9777 111.93 70.706C111.665 70.4342 111.262 70.2983 110.722 70.2983C110.162 70.2983 109.723 70.4209 109.405 70.6662C109.086 70.9115 108.863 71.1733 108.733 71.4517L107.62 71.054C107.819 70.59 108.084 70.2287 108.415 69.9702C108.75 69.7083 109.115 69.526 109.509 69.4233C109.907 69.3172 110.298 69.2642 110.682 69.2642C110.927 69.2642 111.209 69.294 111.527 69.3537C111.849 69.41 112.159 69.5277 112.457 69.7067C112.759 69.8857 113.009 70.1558 113.208 70.517C113.407 70.8783 113.506 71.3622 113.506 71.9688V77H112.333V75.9659H112.273C112.194 76.1316 112.061 76.3089 111.875 76.4979C111.69 76.6868 111.443 76.8475 111.135 76.9801C110.826 77.1127 110.45 77.179 110.006 77.179ZM110.185 76.125C110.649 76.125 111.04 76.0339 111.358 75.8516C111.68 75.6693 111.922 75.4339 112.084 75.1456C112.25 74.8572 112.333 74.554 112.333 74.2358V73.1619C112.283 73.2216 112.174 73.2763 112.005 73.326C111.839 73.3724 111.647 73.4138 111.428 73.4503C111.213 73.4834 111.002 73.5133 110.797 73.5398C110.594 73.563 110.43 73.5829 110.304 73.5994C109.999 73.6392 109.714 73.7038 109.449 73.7933C109.187 73.8795 108.975 74.0104 108.813 74.1861C108.654 74.3584 108.574 74.5937 108.574 74.892C108.574 75.2997 108.725 75.608 109.027 75.8168C109.332 76.0223 109.718 76.125 110.185 76.125Z" fill="#7A7A7A"/>
</g>
<defs>
<clipPath id="clip0_3066_5260">
<rect width="135" height="96" fill="white" transform="translate(0.333496)"/>
</clipPath>
<clipPath id="clip1_3066_5260">
<rect width="35" height="34" fill="white" transform="translate(50.3335 16)"/>
</clipPath>
</defs>
</svg>
