<svg width="136" height="96" viewBox="0 0 136 96" fill="none" xmlns="http://www.w3.org/2000/svg">
<path d="M81.4997 28.5252V46.0002C81.4997 46.7959 81.2187 47.5589 80.7186 48.1215C80.2185 48.6841 79.5403 49.0002 78.833 49.0002H57.4997C56.7924 49.0002 56.1142 48.6841 55.6141 48.1215C55.114 47.5589 54.833 46.7959 54.833 46.0002V28.5252C54.8352 27.9269 54.9963 27.343 55.2956 26.8486C55.595 26.3541 56.0189 25.9716 56.513 25.7502L67.1797 20.9502C67.8133 20.6663 68.5194 20.6663 69.153 20.9502L79.8197 25.7502C80.3137 25.9716 80.7377 26.3541 81.0371 26.8486C81.3364 27.343 81.4975 27.9269 81.4997 28.5252Z" stroke="#7A7A7A" stroke-width="2" stroke-linecap="round" stroke-linejoin="round"/>
<path d="M60.1665 43H76.1665" stroke="#7A7A7A" stroke-width="2" stroke-linecap="round" stroke-linejoin="round"/>
<path d="M60.1665 37H76.1665" stroke="#7A7A7A" stroke-width="2" stroke-linecap="round" stroke-linejoin="round"/>
<path d="M76.1665 31H60.1665V49H76.1665V31Z" stroke="#7A7A7A" stroke-width="2" stroke-linecap="round" stroke-linejoin="round"/>
<path d="M39.0926 70H37.8597C37.7868 69.6454 37.6592 69.3338 37.4769 69.0653C37.2979 68.7969 37.0791 68.5715 36.8206 68.3892C36.5654 68.2036 36.282 68.0644 35.9705 67.9716C35.6589 67.8788 35.3341 67.8324 34.996 67.8324C34.3796 67.8324 33.8211 67.9882 33.3206 68.2997C32.8235 68.6113 32.4274 69.0703 32.1324 69.6768C31.8407 70.2834 31.6949 71.0275 31.6949 71.9091C31.6949 72.7907 31.8407 73.5348 32.1324 74.1413C32.4274 74.7479 32.8235 75.2069 33.3206 75.5185C33.8211 75.83 34.3796 75.9858 34.996 75.9858C35.3341 75.9858 35.6589 75.9394 35.9705 75.8466C36.282 75.7538 36.5654 75.6162 36.8206 75.4339C37.0791 75.2483 37.2979 75.0213 37.4769 74.7528C37.6592 74.4811 37.7868 74.1695 37.8597 73.8182H39.0926C38.9998 74.3385 38.8308 74.8042 38.5855 75.2152C38.3403 75.6262 38.0353 75.9759 37.6708 76.2642C37.3062 76.5492 36.8969 76.7663 36.4428 76.9155C35.992 77.0646 35.5098 77.1392 34.996 77.1392C34.1277 77.1392 33.3554 76.9271 32.6793 76.5028C32.0032 76.0786 31.4712 75.4754 31.0834 74.6932C30.6956 73.911 30.5017 72.983 30.5017 71.9091C30.5017 70.8352 30.6956 69.9072 31.0834 69.125C31.4712 68.3428 32.0032 67.7396 32.6793 67.3153C33.3554 66.8911 34.1277 66.679 34.996 66.679C35.5098 66.679 35.992 66.7536 36.4428 66.9027C36.8969 67.0518 37.3062 67.2706 37.6708 67.5589C38.0353 67.844 38.3403 68.192 38.5855 68.603C38.8308 69.0107 38.9998 69.4763 39.0926 70ZM42.0992 66.8182V77H40.9259V66.8182H42.0992ZM49.0607 73.8778V69.3636H50.234V77H49.0607V75.7074H48.9811C48.8022 76.0952 48.5237 76.425 48.1459 76.6967C47.7681 76.9652 47.2908 77.0994 46.7141 77.0994C46.2368 77.0994 45.8126 76.995 45.4414 76.7862C45.0701 76.5741 44.7785 76.2559 44.5664 75.8317C44.3542 75.4041 44.2482 74.8655 44.2482 74.2159V69.3636H45.4215V74.1364C45.4215 74.6932 45.5773 75.1373 45.8888 75.4688C46.2037 75.8002 46.6047 75.9659 47.0919 75.9659C47.3836 75.9659 47.6802 75.8913 47.9818 75.7422C48.2868 75.593 48.542 75.3643 48.7475 75.0561C48.9563 74.7479 49.0607 74.3551 49.0607 73.8778ZM52.542 77V66.8182H53.7153V70.5767H53.8148C53.9009 70.4441 54.0203 70.2751 54.1727 70.0696C54.3285 69.8608 54.5506 69.6752 54.8389 69.5128C55.1306 69.3471 55.525 69.2642 56.0222 69.2642C56.6651 69.2642 57.2319 69.425 57.7224 69.7464C58.213 70.0679 58.5958 70.5237 58.8709 71.1136C59.146 71.7036 59.2835 72.3996 59.2835 73.2017C59.2835 74.0104 59.146 74.7114 58.8709 75.3047C58.5958 75.8946 58.2146 76.352 57.7274 76.6768C57.2402 76.9983 56.6784 77.1591 56.042 77.1591C55.5515 77.1591 55.1588 77.0779 54.8638 76.9155C54.5688 76.7498 54.3418 76.5625 54.1827 76.3537C54.0236 76.1416 53.9009 75.9659 53.8148 75.8267H53.6756V77H52.542ZM53.6954 73.1818C53.6954 73.7585 53.78 74.2673 53.949 74.7081C54.118 75.1456 54.365 75.4886 54.6898 75.7372C55.0146 75.9825 55.4123 76.1051 55.8829 76.1051C56.3735 76.1051 56.7828 75.9759 57.1109 75.7173C57.4424 75.4555 57.6909 75.1042 57.8567 74.6634C58.0257 74.2192 58.1102 73.7254 58.1102 73.1818C58.1102 72.6449 58.0274 72.161 57.8616 71.7301C57.6992 71.2959 57.4523 70.9529 57.1209 70.701C56.7927 70.4458 56.3801 70.3182 55.8829 70.3182C55.4057 70.3182 55.0046 70.4392 54.6798 70.6811C54.355 70.9197 54.1097 71.2545 53.944 71.6854C53.7783 72.1129 53.6954 72.6117 53.6954 73.1818ZM65.1748 77V66.8182H66.4078V71.3523H71.8368V66.8182H73.0697V77H71.8368V72.446H66.4078V77H65.1748ZM78.4813 77.1591C77.7919 77.1591 77.187 76.995 76.6667 76.6669C76.1496 76.3388 75.7453 75.8797 75.4536 75.2898C75.1653 74.6998 75.0211 74.0104 75.0211 73.2216C75.0211 72.4261 75.1653 71.7318 75.4536 71.1385C75.7453 70.5452 76.1496 70.0845 76.6667 69.7564C77.187 69.4283 77.7919 69.2642 78.4813 69.2642C79.1707 69.2642 79.7739 69.4283 80.291 69.7564C80.8113 70.0845 81.2157 70.5452 81.504 71.1385C81.7957 71.7318 81.9415 72.4261 81.9415 73.2216C81.9415 74.0104 81.7957 74.6998 81.504 75.2898C81.2157 75.8797 80.8113 76.3388 80.291 76.6669C79.7739 76.995 79.1707 77.1591 78.4813 77.1591ZM78.4813 76.1051C79.005 76.1051 79.4359 75.9709 79.7739 75.7024C80.112 75.4339 80.3622 75.081 80.5246 74.6435C80.687 74.206 80.7682 73.732 80.7682 73.2216C80.7682 72.7112 80.687 72.2356 80.5246 71.7947C80.3622 71.3539 80.112 70.9976 79.7739 70.7259C79.4359 70.4541 79.005 70.3182 78.4813 70.3182C77.9576 70.3182 77.5268 70.4541 77.1887 70.7259C76.8506 70.9976 76.6004 71.3539 76.438 71.7947C76.2756 72.2356 76.1944 72.7112 76.1944 73.2216C76.1944 73.732 76.2756 74.206 76.438 74.6435C76.6004 75.081 76.8506 75.4339 77.1887 75.7024C77.5268 75.9709 77.9576 76.1051 78.4813 76.1051ZM88.5451 73.8778V69.3636H89.7184V77H88.5451V75.7074H88.4655C88.2865 76.0952 88.0081 76.425 87.6303 76.6967C87.2524 76.9652 86.7752 77.0994 86.1985 77.0994C85.7212 77.0994 85.2969 76.995 84.9257 76.7862C84.5545 76.5741 84.2629 76.2559 84.0507 75.8317C83.8386 75.4041 83.7326 74.8655 83.7326 74.2159V69.3636H84.9059V74.1364C84.9059 74.6932 85.0616 75.1373 85.3732 75.4688C85.688 75.8002 86.0891 75.9659 86.5763 75.9659C86.868 75.9659 87.1646 75.8913 87.4662 75.7422C87.7711 75.593 88.0264 75.3643 88.2318 75.0561C88.4407 74.7479 88.5451 74.3551 88.5451 73.8778ZM97.2764 71.0739L96.2224 71.3722C96.1561 71.1965 96.0584 71.0258 95.9291 70.8601C95.8032 70.6911 95.6308 70.5518 95.4121 70.4425C95.1933 70.3331 94.9132 70.2784 94.5719 70.2784C94.1045 70.2784 93.7151 70.3861 93.4035 70.6016C93.0953 70.8137 92.9412 71.0838 92.9412 71.4119C92.9412 71.7036 93.0472 71.9339 93.2594 72.103C93.4715 72.272 93.8029 72.4129 94.2537 72.5256L95.3872 72.804C96.07 72.9697 96.5787 73.2232 96.9135 73.5646C97.2482 73.9027 97.4156 74.3385 97.4156 74.8722C97.4156 75.3097 97.2897 75.7008 97.0378 76.0455C96.7892 76.3902 96.4412 76.6619 95.9937 76.8608C95.5463 77.0597 95.0259 77.1591 94.4327 77.1591C93.6538 77.1591 93.0091 76.9901 92.4987 76.652C91.9883 76.3139 91.6651 75.8201 91.5293 75.1705L92.6429 74.892C92.7489 75.303 92.9495 75.6113 93.2445 75.8168C93.5427 76.0223 93.9322 76.125 94.4128 76.125C94.9597 76.125 95.3938 76.009 95.7153 75.777C96.0401 75.5417 96.2025 75.2599 96.2025 74.9318C96.2025 74.6667 96.1097 74.4446 95.9241 74.2656C95.7385 74.0833 95.4535 73.9474 95.069 73.858L93.7963 73.5597C93.097 73.3939 92.5832 73.1371 92.2551 72.7891C91.9303 72.4377 91.7679 71.9986 91.7679 71.4716C91.7679 71.0407 91.8889 70.6596 92.1308 70.3281C92.3761 69.9967 92.7092 69.7365 93.1301 69.5476C93.5543 69.3587 94.0349 69.2642 94.5719 69.2642C95.3275 69.2642 95.9208 69.4299 96.3517 69.7614C96.7859 70.0928 97.0941 70.5303 97.2764 71.0739ZM102.383 77.1591C101.648 77.1591 101.013 76.9967 100.479 76.6719C99.9491 76.3438 99.5397 75.8864 99.2514 75.2997C98.9663 74.7098 98.8238 74.0237 98.8238 73.2415C98.8238 72.4593 98.9663 71.7699 99.2514 71.1733C99.5397 70.5734 99.9408 70.1061 100.455 69.7713C100.972 69.4332 101.575 69.2642 102.264 69.2642C102.662 69.2642 103.055 69.3305 103.442 69.4631C103.83 69.5956 104.183 69.8111 104.501 70.1094C104.82 70.4044 105.073 70.7955 105.262 71.2827C105.451 71.7699 105.545 72.3698 105.545 73.0824V73.5795H99.659V72.5653H104.352C104.352 72.1345 104.266 71.75 104.094 71.4119C103.925 71.0739 103.683 70.8071 103.368 70.6115C103.056 70.416 102.688 70.3182 102.264 70.3182C101.797 70.3182 101.392 70.4342 101.051 70.6662C100.713 70.8949 100.453 71.1932 100.271 71.5611C100.088 71.929 99.9971 72.3234 99.9971 72.7443V73.4205C99.9971 73.9972 100.097 74.486 100.295 74.8871C100.498 75.2848 100.778 75.5881 101.136 75.7969C101.494 76.0024 101.91 76.1051 102.383 76.1051C102.692 76.1051 102.97 76.062 103.219 75.9759C103.471 75.8864 103.688 75.7538 103.87 75.5781C104.052 75.3991 104.193 75.1771 104.293 74.9119L105.426 75.2301C105.307 75.6146 105.106 75.9527 104.825 76.2443C104.543 76.5327 104.195 76.758 103.78 76.9205C103.366 77.0795 102.901 77.1591 102.383 77.1591Z" fill="#7A7A7A"/>
</svg>
