<svg width="136" height="96" viewBox="0 0 136 96" fill="none" xmlns="http://www.w3.org/2000/svg">
<path d="M62.8753 36.5417C63.8146 36.5417 64.7155 36.1685 65.3797 35.5043C66.0439 34.8401 66.417 33.9393 66.417 33C66.417 31.045 65.7087 30.1667 65.0003 28.75C63.4817 25.7141 64.683 23.0068 67.8337 20.25C68.542 23.7917 70.667 27.1917 73.5003 29.4583C76.3337 31.725 77.7503 34.4167 77.7503 37.25C77.7503 38.5523 77.4938 39.8418 76.9955 41.0449C76.4971 42.2481 75.7666 43.3413 74.8458 44.2621C73.925 45.183 72.8317 45.9134 71.6286 46.4118C70.4255 46.9102 69.1359 47.1667 67.8337 47.1667C66.5314 47.1667 65.2419 46.9102 64.0387 46.4118C62.8356 45.9134 61.7424 45.183 60.8215 44.2621C59.9007 43.3413 59.1702 42.2481 58.6719 41.0449C58.1735 39.8418 57.917 38.5523 57.917 37.25C57.917 35.6166 58.5304 34.0002 59.3337 33C59.3337 33.9393 59.7068 34.8401 60.371 35.5043C61.0352 36.1685 61.936 36.5417 62.8753 36.5417Z" stroke="#7A7A7A" stroke-width="2" stroke-linecap="round" stroke-linejoin="round"/>
<path d="M33.0665 77V66.8182H39.1716V67.9119H34.2994V71.3523H38.7142V72.446H34.2994V77H33.0665ZM41.1242 77V69.3636H42.2975V77H41.1242ZM41.7207 68.0909C41.4921 68.0909 41.2948 68.013 41.1291 67.8572C40.9667 67.7015 40.8855 67.5142 40.8855 67.2955C40.8855 67.0767 40.9667 66.8894 41.1291 66.7337C41.2948 66.5779 41.4921 66.5 41.7207 66.5C41.9494 66.5 42.145 66.5779 42.3074 66.7337C42.4731 66.8894 42.556 67.0767 42.556 67.2955C42.556 67.5142 42.4731 67.7015 42.3074 67.8572C42.145 68.013 41.9494 68.0909 41.7207 68.0909ZM44.4464 77V69.3636H45.5799V70.517H45.6595C45.7987 70.1392 46.0506 69.8326 46.4152 69.5973C46.7798 69.362 47.1907 69.2443 47.6481 69.2443C47.7343 69.2443 47.842 69.246 47.9713 69.2493C48.1005 69.2526 48.1983 69.2576 48.2646 69.2642V70.4574C48.2248 70.4474 48.1337 70.4325 47.9912 70.4126C47.852 70.3894 47.7045 70.3778 47.5487 70.3778C47.1775 70.3778 46.846 70.4557 46.5544 70.6115C46.266 70.764 46.0373 70.9761 45.8683 71.2479C45.7026 71.5163 45.6197 71.8229 45.6197 72.1676V77H44.4464ZM52.6247 77.1591C51.8889 77.1591 51.2542 76.9967 50.7206 76.6719C50.1903 76.3438 49.7809 75.8864 49.4926 75.2997C49.2075 74.7098 49.065 74.0237 49.065 73.2415C49.065 72.4593 49.2075 71.7699 49.4926 71.1733C49.7809 70.5734 50.182 70.1061 50.6957 69.7713C51.2128 69.4332 51.816 69.2642 52.5054 69.2642C52.9031 69.2642 53.2959 69.3305 53.6836 69.4631C54.0714 69.5956 54.4244 69.8111 54.7426 70.1094C55.0608 70.4044 55.3143 70.7955 55.5032 71.2827C55.6922 71.7699 55.7866 72.3698 55.7866 73.0824V73.5795H49.9003V72.5653H54.5934C54.5934 72.1345 54.5073 71.75 54.3349 71.4119C54.1659 71.0739 53.9239 70.8071 53.6091 70.6115C53.2975 70.416 52.9296 70.3182 52.5054 70.3182C52.038 70.3182 51.6337 70.4342 51.2923 70.6662C50.9542 70.8949 50.6941 71.1932 50.5118 71.5611C50.3295 71.929 50.2383 72.3234 50.2383 72.7443V73.4205C50.2383 73.9972 50.3378 74.486 50.5366 74.8871C50.7388 75.2848 51.0189 75.5881 51.3768 75.7969C51.7348 76.0024 52.1507 76.1051 52.6247 76.1051C52.9329 76.1051 53.2113 76.062 53.4599 75.9759C53.7118 75.8864 53.9289 75.7538 54.1112 75.5781C54.2935 75.3991 54.4343 75.1771 54.5338 74.9119L55.6673 75.2301C55.548 75.6146 55.3475 75.9527 55.0657 76.2443C54.784 76.5327 54.436 76.758 54.0217 76.9205C53.6074 77.0795 53.1417 77.1591 52.6247 77.1591ZM67.2362 69.3636C67.1765 68.8598 66.9346 68.4688 66.5103 68.1903C66.0861 67.9119 65.5657 67.7727 64.9493 67.7727C64.4985 67.7727 64.1041 67.8456 63.766 67.9915C63.4313 68.1373 63.1694 68.3378 62.9805 68.593C62.7949 68.8482 62.7021 69.1383 62.7021 69.4631C62.7021 69.7348 62.7667 69.9685 62.896 70.1641C63.0286 70.3563 63.1976 70.517 63.4031 70.6463C63.6086 70.7723 63.824 70.8767 64.0494 70.9595C64.2748 71.0391 64.4819 71.1037 64.6709 71.1534L65.7049 71.4318C65.9701 71.5014 66.2651 71.5975 66.5899 71.7202C66.918 71.8428 67.2312 72.0102 67.5295 72.2223C67.8311 72.4311 68.0797 72.6996 68.2753 73.0277C68.4708 73.3558 68.5686 73.7585 68.5686 74.2358C68.5686 74.786 68.4244 75.2831 68.1361 75.7273C67.851 76.1714 67.4334 76.5244 66.8832 76.7862C66.3363 77.0481 65.6718 77.179 64.8896 77.179C64.1604 77.179 63.529 77.0613 62.9954 76.826C62.4651 76.5907 62.0475 76.2625 61.7426 75.8416C61.441 75.4207 61.2703 74.9318 61.2305 74.375H62.5032C62.5364 74.7595 62.6656 75.0777 62.891 75.3295C63.1197 75.5781 63.4081 75.7637 63.7561 75.8864C64.1074 76.0057 64.4852 76.0653 64.8896 76.0653C65.3602 76.0653 65.7828 75.9891 66.1574 75.8366C66.5319 75.6809 66.8285 75.4654 67.0473 75.1903C67.266 74.9119 67.3754 74.5871 67.3754 74.2159C67.3754 73.8778 67.2809 73.6027 67.092 73.3906C66.9031 73.1785 66.6545 73.0062 66.3463 72.8736C66.038 72.741 65.7049 72.625 65.347 72.5256L64.0941 72.1676C63.2987 71.9389 62.669 71.6125 62.2049 71.1882C61.7409 70.764 61.5089 70.2088 61.5089 69.5227C61.5089 68.9527 61.663 68.4555 61.9713 68.0312C62.2828 67.6037 62.7004 67.2723 63.2241 67.0369C63.7511 66.7983 64.3394 66.679 64.989 66.679C65.6453 66.679 66.2286 66.7966 66.739 67.032C67.2495 67.264 67.6538 67.5821 67.9521 67.9865C68.2537 68.3909 68.4128 68.8499 68.4294 69.3636H67.2362ZM72.6838 77.179C72.1999 77.179 71.7608 77.0878 71.3663 76.9055C70.9719 76.7199 70.6587 76.4531 70.4267 76.1051C70.1947 75.7538 70.0787 75.3295 70.0787 74.8324C70.0787 74.3949 70.1649 74.0402 70.3372 73.7685C70.5096 73.4934 70.7399 73.2779 71.0283 73.1222C71.3166 72.9664 71.6348 72.8504 71.9828 72.7741C72.3341 72.6946 72.6871 72.6316 73.0418 72.5852C73.5058 72.5256 73.882 72.4808 74.1703 72.451C74.462 72.4179 74.6741 72.3632 74.8067 72.2869C74.9426 72.2107 75.0105 72.0781 75.0105 71.8892V71.8494C75.0105 71.3589 74.8763 70.9777 74.6078 70.706C74.3427 70.4342 73.94 70.2983 73.3997 70.2983C72.8396 70.2983 72.4004 70.4209 72.0823 70.6662C71.7641 70.9115 71.5403 71.1733 71.4111 71.4517L70.2975 71.054C70.4963 70.59 70.7615 70.2287 71.0929 69.9702C71.4277 69.7083 71.7922 69.526 72.1867 69.4233C72.5844 69.3172 72.9755 69.2642 73.36 69.2642C73.6052 69.2642 73.8869 69.294 74.2051 69.3537C74.5266 69.41 74.8365 69.5277 75.1348 69.7067C75.4364 69.8857 75.6867 70.1558 75.8855 70.517C76.0844 70.8783 76.1838 71.3622 76.1838 71.9688V77H75.0105V75.9659H74.9509C74.8713 76.1316 74.7387 76.3089 74.5531 76.4979C74.3675 76.6868 74.1206 76.8475 73.8124 76.9801C73.5041 77.1127 73.1279 77.179 72.6838 77.179ZM72.8628 76.125C73.3268 76.125 73.7179 76.0339 74.0361 75.8516C74.3576 75.6693 74.5995 75.4339 74.7619 75.1456C74.9277 74.8572 75.0105 74.554 75.0105 74.2358V73.1619C74.9608 73.2216 74.8514 73.2763 74.6824 73.326C74.5167 73.3724 74.3244 73.4138 74.1057 73.4503C73.8903 73.4834 73.6798 73.5133 73.4743 73.5398C73.2721 73.563 73.1081 73.5829 72.9821 73.5994C72.6772 73.6392 72.3921 73.7038 72.127 73.7933C71.8652 73.8795 71.653 74.0104 71.4906 74.1861C71.3315 74.3584 71.252 74.5937 71.252 74.892C71.252 75.2997 71.4028 75.608 71.7044 75.8168C72.0093 76.0223 72.3955 76.125 72.8628 76.125ZM81.7259 69.3636V70.358H77.6094V69.3636H81.7259ZM78.8424 77V68.3097C78.8424 67.8722 78.9451 67.5076 79.1506 67.2159C79.3561 66.9242 79.6229 66.7055 79.951 66.5597C80.2792 66.4138 80.6255 66.3409 80.9901 66.3409C81.2785 66.3409 81.5138 66.3641 81.6961 66.4105C81.8784 66.4569 82.0142 66.5 82.1037 66.5398L81.7657 67.554C81.706 67.5341 81.6232 67.5092 81.5171 67.4794C81.4143 67.4496 81.2785 67.4347 81.1094 67.4347C80.7216 67.4347 80.4416 67.5324 80.2692 67.728C80.1002 67.9235 80.0157 68.2102 80.0157 68.5881V77H78.8424ZM86.2575 77.1591C85.5217 77.1591 84.887 76.9967 84.3534 76.6719C83.8231 76.3438 83.4138 75.8864 83.1254 75.2997C82.8404 74.7098 82.6978 74.0237 82.6978 73.2415C82.6978 72.4593 82.8404 71.7699 83.1254 71.1733C83.4138 70.5734 83.8148 70.1061 84.3285 69.7713C84.8456 69.4332 85.4488 69.2642 86.1382 69.2642C86.5359 69.2642 86.9287 69.3305 87.3165 69.4631C87.7042 69.5956 88.0572 69.8111 88.3754 70.1094C88.6936 70.4044 88.9471 70.7955 89.1361 71.2827C89.325 71.7699 89.4194 72.3698 89.4194 73.0824V73.5795H83.5331V72.5653H88.2263C88.2263 72.1345 88.1401 71.75 87.9677 71.4119C87.7987 71.0739 87.5567 70.8071 87.2419 70.6115C86.9303 70.416 86.5624 70.3182 86.1382 70.3182C85.6709 70.3182 85.2665 70.4342 84.9251 70.6662C84.587 70.8949 84.3269 71.1932 84.1446 71.5611C83.9623 71.929 83.8711 72.3234 83.8711 72.7443V73.4205C83.8711 73.9972 83.9706 74.486 84.1694 74.8871C84.3716 75.2848 84.6517 75.5881 85.0096 75.7969C85.3676 76.0024 85.7835 76.1051 86.2575 76.1051C86.5657 76.1051 86.8441 76.062 87.0927 75.9759C87.3446 75.8864 87.5617 75.7538 87.744 75.5781C87.9263 75.3991 88.0672 75.1771 88.1666 74.9119L89.3001 75.2301C89.1808 75.6146 88.9803 75.9527 88.6986 76.2443C88.4168 76.5327 88.0688 76.758 87.6545 76.9205C87.2402 77.0795 86.7745 77.1591 86.2575 77.1591ZM94.5253 69.3636V70.358H90.5679V69.3636H94.5253ZM91.7213 67.5341H92.8946V74.8125C92.8946 75.1439 92.9426 75.3925 93.0388 75.5582C93.1382 75.7206 93.2641 75.83 93.4166 75.8864C93.5724 75.9394 93.7364 75.9659 93.9088 75.9659C94.038 75.9659 94.1441 75.9593 94.227 75.946C94.3098 75.9295 94.3761 75.9162 94.4258 75.9062L94.6645 76.9602C94.5849 76.9901 94.4739 77.0199 94.3314 77.0497C94.1888 77.0829 94.0082 77.0994 93.7895 77.0994C93.458 77.0994 93.1332 77.0282 92.815 76.8857C92.5002 76.7431 92.2383 76.526 92.0295 76.2344C91.824 75.9427 91.7213 75.5748 91.7213 75.1307V67.5341ZM97.0459 79.8636C96.847 79.8636 96.6697 79.8471 96.5139 79.8139C96.3581 79.7841 96.2504 79.7543 96.1907 79.7244L96.489 78.6903C96.7741 78.7633 97.026 78.7898 97.2447 78.7699C97.4635 78.75 97.6574 78.6522 97.8264 78.4766C97.9987 78.3042 98.1562 78.0241 98.2987 77.6364L98.5174 77.0398L95.6936 69.3636H96.9663L99.0743 75.4489H99.1538L101.262 69.3636H102.534L99.293 78.1136C99.1472 78.508 98.9665 78.8345 98.7511 79.093C98.5357 79.3549 98.2854 79.5488 98.0004 79.6747C97.7187 79.8007 97.4005 79.8636 97.0459 79.8636Z" fill="#7A7A7A"/>
</svg>
