<svg width="136" height="96" viewBox="0 0 136 96" fill="none" xmlns="http://www.w3.org/2000/svg">
<path d="M60.0024 48.2992C60.0024 48.2992 60.0024 26.9614 60.0024 26.526C60.0024 26.0905 76.3316 26.0901 76.3316 26.526C76.3316 26.9618 76.3316 48.2992 76.3316 48.2992" stroke="#7A7A7A" stroke-width="1.8"/>
<path fill-rule="evenodd" clip-rule="evenodd" d="M53.7123 16.5858C53.1265 17.1716 53.1265 18.1144 53.1265 20V46C53.1265 47.8856 53.1265 48.8284 53.7123 49.4142C54.298 50 55.2408 50 57.1265 50H79.2065C81.0921 50 82.0349 50 82.6207 49.4142C83.2065 48.8284 83.2065 47.8856 83.2065 46V20C83.2065 18.1144 83.2065 17.1716 82.6207 16.5858C82.0349 16 81.0921 16 79.2065 16H57.1265C55.2408 16 54.298 16 53.7123 16.5858ZM81.3718 17.8382H54.8921V48.1626H81.3718V17.8382Z" fill="#7A7A7A"/>
<path d="M68.1665 27.0498V48.0931" stroke="#7A7A7A" stroke-width="1.8"/>
<path d="M62.7113 20.3864C63.1064 19.9644 63.776 19.9644 64.1711 20.3864L65.4465 21.7484C66.0447 22.3872 65.5918 23.4319 64.7166 23.4319H62.1657C61.2906 23.4319 60.8376 22.3872 61.4358 21.7484L62.7113 20.3864Z" fill="#7A7A7A"/>
<path d="M71.7347 23.0775C72.1298 23.4994 72.7994 23.4994 73.1945 23.0775L74.47 21.7155C75.0682 21.0767 74.6152 20.0319 73.74 20.0319H71.1892C70.314 20.0319 69.8611 21.0767 70.4593 21.7155L71.7347 23.0775Z" fill="#7A7A7A"/>
<path d="M58.3995 77V66.8182H59.6324V75.9062H64.3654V77H58.3995ZM66.1154 77V69.3636H67.2887V77H66.1154ZM66.712 68.0909C66.4833 68.0909 66.2861 68.013 66.1203 67.8572C65.9579 67.7015 65.8767 67.5142 65.8767 67.2955C65.8767 67.0767 65.9579 66.8894 66.1203 66.7337C66.2861 66.5779 66.4833 66.5 66.712 66.5C66.9407 66.5 67.1362 66.5779 67.2986 66.7337C67.4643 66.8894 67.5472 67.0767 67.5472 67.2955C67.5472 67.5142 67.4643 67.7015 67.2986 67.8572C67.1362 68.013 66.9407 68.0909 66.712 68.0909ZM72.8382 69.3636V70.358H68.7217V69.3636H72.8382ZM69.9547 77V68.3097C69.9547 67.8722 70.0574 67.5076 70.2629 67.2159C70.4684 66.9242 70.7352 66.7055 71.0633 66.5597C71.3915 66.4138 71.7378 66.3409 72.1024 66.3409C72.3908 66.3409 72.6261 66.3641 72.8084 66.4105C72.9907 66.4569 73.1266 66.5 73.216 66.5398L72.878 67.554C72.8183 67.5341 72.7355 67.5092 72.6294 67.4794C72.5266 67.4496 72.3908 67.4347 72.2217 67.4347C71.8339 67.4347 71.5539 67.5324 71.3815 67.728C71.2125 67.9235 71.128 68.2102 71.128 68.5881V77H69.9547ZM77.8036 69.3636V70.358H73.8462V69.3636H77.8036ZM74.9996 67.5341H76.1729V74.8125C76.1729 75.1439 76.221 75.3925 76.3171 75.5582C76.4165 75.7206 76.5425 75.83 76.6949 75.8864C76.8507 75.9394 77.0148 75.9659 77.1871 75.9659C77.3164 75.9659 77.4224 75.9593 77.5053 75.946C77.5881 75.9295 77.6544 75.9162 77.7041 75.9062L77.9428 76.9602C77.8632 76.9901 77.7522 77.0199 77.6097 77.0497C77.4672 77.0829 77.2865 77.0994 77.0678 77.0994C76.7363 77.0994 76.4115 77.0282 76.0934 76.8857C75.7785 76.7431 75.5166 76.526 75.3078 76.2344C75.1023 75.9427 74.9996 75.5748 74.9996 75.1307V67.5341Z" fill="#7A7A7A"/>
</svg>
