<svg width="136" height="96" viewBox="0 0 136 96" fill="none" xmlns="http://www.w3.org/2000/svg">
<g clip-path="url(#clip0_3066_5371)">
<path d="M59.3335 42.9168V23.0835" stroke="#7A7A7A" stroke-width="2" stroke-linecap="round" stroke-linejoin="round"/>
<path d="M65 42.9166V25.6333" stroke="#7A7A7A" stroke-width="2" stroke-linecap="round" stroke-linejoin="round"/>
<path d="M70.667 42.9167V31.8667" stroke="#7A7A7A" stroke-width="2" stroke-linecap="round" stroke-linejoin="round"/>
<path d="M76.3335 23.0835V28.7502" stroke="#7A7A7A" stroke-width="2" stroke-linecap="round" stroke-linejoin="round"/>
<path d="M76.3335 42.9165V34.4165" stroke="#7A7A7A" stroke-width="2" stroke-linecap="round" stroke-linejoin="round"/>
<path d="M82 42.9167V28.75" stroke="#7A7A7A" stroke-width="2" stroke-linecap="round" stroke-linejoin="round"/>
<path d="M53.667 42.9168V28.7502C53.667 27.2473 54.264 25.8059 55.3267 24.7432C56.3894 23.6805 57.8308 23.0835 59.3337 23.0835C62.167 23.0835 65.0003 24.9677 67.8337 28.7502C70.667 32.5327 73.5003 34.4168 76.3337 34.4168C77.28 34.4159 78.2111 34.1781 79.0419 33.7249C79.8726 33.2717 80.5767 32.6177 81.0898 31.8225C81.6029 31.0274 81.9087 30.1163 81.9792 29.1726C82.0498 28.2289 81.8829 27.2826 81.4937 26.4199C81.1046 25.5573 80.5056 24.8059 79.7514 24.2342C78.9972 23.6625 78.1119 23.2889 77.1762 23.1473C76.2405 23.0057 75.2842 23.1007 74.3947 23.4236C73.5051 23.7466 72.7106 24.2871 72.0837 24.996" stroke="#7A7A7A" stroke-width="2" stroke-linecap="round" stroke-linejoin="round"/>
<path d="M22.0665 77V66.8182H23.2994V71.8693H23.4187L27.9926 66.8182H29.6034L25.3278 71.4119L29.6034 77H28.1119L24.5721 72.267L23.2994 73.6989V77H22.0665ZM31.5187 77V69.3636H32.692V77H31.5187ZM32.1153 68.0909C31.8866 68.0909 31.6894 68.013 31.5237 67.8572C31.3613 67.7015 31.2801 67.5142 31.2801 67.2955C31.2801 67.0767 31.3613 66.8894 31.5237 66.7337C31.6894 66.5779 31.8866 66.5 32.1153 66.5C32.344 66.5 32.5395 66.5779 32.7019 66.7337C32.8676 66.8894 32.9505 67.0767 32.9505 67.2955C32.9505 67.5142 32.8676 67.7015 32.7019 67.8572C32.5395 68.013 32.344 68.0909 32.1153 68.0909ZM37.7245 77.1591C37.0881 77.1591 36.5263 76.9983 36.0391 76.6768C35.5519 76.352 35.1707 75.8946 34.8956 75.3047C34.6205 74.7114 34.483 74.0104 34.483 73.2017C34.483 72.3996 34.6205 71.7036 34.8956 71.1136C35.1707 70.5237 35.5535 70.0679 36.0441 69.7464C36.5346 69.425 37.1014 69.2642 37.7444 69.2642C38.2415 69.2642 38.6343 69.3471 38.9226 69.5128C39.2143 69.6752 39.4364 69.8608 39.5888 70.0696C39.7446 70.2751 39.8656 70.4441 39.9517 70.5767H40.0512V66.8182H41.2245V77H40.091V75.8267H39.9517C39.8656 75.9659 39.7429 76.1416 39.5839 76.3537C39.4248 76.5625 39.1977 76.7498 38.9027 76.9155C38.6078 77.0779 38.215 77.1591 37.7245 77.1591ZM37.8836 76.1051C38.3542 76.1051 38.7519 75.9825 39.0767 75.7372C39.4016 75.4886 39.6485 75.1456 39.8175 74.7081C39.9866 74.2673 40.0711 73.7585 40.0711 73.1818C40.0711 72.6117 39.9882 72.1129 39.8225 71.6854C39.6568 71.2545 39.4115 70.9197 39.0867 70.6811C38.7619 70.4392 38.3608 70.3182 37.8836 70.3182C37.3864 70.3182 36.9721 70.4458 36.6407 70.701C36.3125 70.9529 36.0656 71.2959 35.8999 71.7301C35.7375 72.161 35.6563 72.6449 35.6563 73.1818C35.6563 73.7254 35.7392 74.2192 35.9049 74.6634C36.0739 75.1042 36.3225 75.4555 36.6506 75.7173C36.9821 75.9759 37.393 76.1051 37.8836 76.1051ZM48.9454 71.0739L47.8914 71.3722C47.8251 71.1965 47.7273 71.0258 47.5981 70.8601C47.4721 70.6911 47.2998 70.5518 47.081 70.4425C46.8623 70.3331 46.5822 70.2784 46.2408 70.2784C45.7735 70.2784 45.384 70.3861 45.0725 70.6016C44.7642 70.8137 44.6101 71.0838 44.6101 71.4119C44.6101 71.7036 44.7162 71.9339 44.9283 72.103C45.1404 72.272 45.4719 72.4129 45.9226 72.5256L47.0562 72.804C47.7389 72.9697 48.2477 73.2232 48.5824 73.5646C48.9172 73.9027 49.0846 74.3385 49.0846 74.8722C49.0846 75.3097 48.9586 75.7008 48.7067 76.0455C48.4581 76.3902 48.1101 76.6619 47.6627 76.8608C47.2152 77.0597 46.6949 77.1591 46.1016 77.1591C45.3227 77.1591 44.6781 76.9901 44.1677 76.652C43.6572 76.3139 43.3341 75.8201 43.1982 75.1705L44.3118 74.892C44.4179 75.303 44.6184 75.6113 44.9134 75.8168C45.2117 76.0223 45.6011 76.125 46.0817 76.125C46.6286 76.125 47.0628 76.009 47.3843 75.777C47.7091 75.5417 47.8715 75.2599 47.8715 74.9318C47.8715 74.6667 47.7787 74.4446 47.5931 74.2656C47.4075 74.0833 47.1224 73.9474 46.738 73.858L45.4652 73.5597C44.7659 73.3939 44.2522 73.1371 43.9241 72.7891C43.5992 72.4377 43.4368 71.9986 43.4368 71.4716C43.4368 71.0407 43.5578 70.6596 43.7998 70.3281C44.045 69.9967 44.3781 69.7365 44.7991 69.5476C45.2233 69.3587 45.7039 69.2642 46.2408 69.2642C46.9965 69.2642 47.5898 69.4299 48.0206 69.7614C48.4548 70.0928 48.7631 70.5303 48.9454 71.0739ZM54.9473 77V66.8182H58.3877C59.1864 66.8182 59.8394 66.9624 60.3465 67.2507C60.8569 67.5357 61.2347 67.9219 61.48 68.4091C61.7252 68.8963 61.8479 69.4399 61.8479 70.0398C61.8479 70.6397 61.7252 71.1849 61.48 71.6754C61.238 72.166 60.8635 72.5571 60.3564 72.8487C59.8493 73.1371 59.1997 73.2812 58.4075 73.2812H55.9416V72.1875H58.3678C58.9146 72.1875 59.3538 72.093 59.6852 71.9041C60.0167 71.7152 60.257 71.46 60.4061 71.1385C60.5586 70.8137 60.6348 70.4474 60.6348 70.0398C60.6348 69.6321 60.5586 69.2675 60.4061 68.946C60.257 68.6245 60.015 68.3726 59.6803 68.1903C59.3455 68.0047 58.9014 67.9119 58.3479 67.9119H56.1803V77H54.9473ZM64.8482 66.8182V77H63.6749V66.8182H64.8482ZM69.2444 77.179C68.7605 77.179 68.3213 77.0878 67.9269 76.9055C67.5325 76.7199 67.2193 76.4531 66.9873 76.1051C66.7553 75.7538 66.6392 75.3295 66.6392 74.8324C66.6392 74.3949 66.7254 74.0402 66.8978 73.7685C67.0701 73.4934 67.3005 73.2779 67.5888 73.1222C67.8772 72.9664 68.1954 72.8504 68.5434 72.7741C68.8947 72.6946 69.2477 72.6316 69.6023 72.5852C70.0663 72.5256 70.4425 72.4808 70.7309 72.451C71.0225 72.4179 71.2347 72.3632 71.3672 72.2869C71.5031 72.2107 71.5711 72.0781 71.5711 71.8892V71.8494C71.5711 71.3589 71.4368 70.9777 71.1684 70.706C70.9032 70.4342 70.5005 70.2983 69.9603 70.2983C69.4001 70.2983 68.961 70.4209 68.6428 70.6662C68.3246 70.9115 68.1009 71.1733 67.9716 71.4517L66.858 71.054C67.0569 70.59 67.322 70.2287 67.6535 69.9702C67.9882 69.7083 68.3528 69.526 68.7472 69.4233C69.1449 69.3172 69.536 69.2642 69.9205 69.2642C70.1658 69.2642 70.4475 69.294 70.7657 69.3537C71.0872 69.41 71.3971 69.5277 71.6954 69.7067C71.997 69.8857 72.2472 70.1558 72.4461 70.517C72.6449 70.8783 72.7444 71.3622 72.7444 71.9688V77H71.5711V75.9659H71.5114C71.4319 76.1316 71.2993 76.3089 71.1137 76.4979C70.9281 76.6868 70.6812 76.8475 70.3729 76.9801C70.0647 77.1127 69.6885 77.179 69.2444 77.179ZM69.4233 76.125C69.8874 76.125 70.2785 76.0339 70.5966 75.8516C70.9181 75.6693 71.1601 75.4339 71.3225 75.1456C71.4882 74.8572 71.5711 74.554 71.5711 74.2358V73.1619C71.5214 73.2216 71.412 73.2763 71.2429 73.326C71.0772 73.3724 70.885 73.4138 70.6662 73.4503C70.4508 73.4834 70.2403 73.5133 70.0348 73.5398C69.8327 73.563 69.6686 73.5829 69.5427 73.5994C69.2377 73.6392 68.9527 73.7038 68.6875 73.7933C68.4257 73.8795 68.2136 74.0104 68.0512 74.1861C67.8921 74.3584 67.8125 74.5937 67.8125 74.892C67.8125 75.2997 67.9633 75.608 68.265 75.8168C68.5699 76.0223 68.956 76.125 69.4233 76.125ZM75.3681 79.8636C75.1693 79.8636 74.9919 79.8471 74.8362 79.8139C74.6804 79.7841 74.5727 79.7543 74.513 79.7244L74.8113 78.6903C75.0963 78.7633 75.3482 78.7898 75.567 78.7699C75.7857 78.75 75.9796 78.6522 76.1487 78.4766C76.321 78.3042 76.4784 78.0241 76.621 77.6364L76.8397 77.0398L74.0158 69.3636H75.2886L77.3965 75.4489H77.4761L79.584 69.3636H80.8568L77.6153 78.1136C77.4694 78.508 77.2888 78.8345 77.0734 79.093C76.8579 79.3549 76.6077 79.5488 76.3227 79.6747C76.0409 79.8007 75.7228 79.8636 75.3681 79.8636ZM88.5901 77.179C88.1062 77.179 87.667 77.0878 87.2726 76.9055C86.8782 76.7199 86.565 76.4531 86.333 76.1051C86.101 75.7538 85.985 75.3295 85.985 74.8324C85.985 74.3949 86.0711 74.0402 86.2435 73.7685C86.4158 73.4934 86.6462 73.2779 86.9345 73.1222C87.2229 72.9664 87.5411 72.8504 87.8891 72.7741C88.2404 72.6946 88.5934 72.6316 88.948 72.5852C89.412 72.5256 89.7882 72.4808 90.0766 72.451C90.3682 72.4179 90.5804 72.3632 90.7129 72.2869C90.8488 72.2107 90.9168 72.0781 90.9168 71.8892V71.8494C90.9168 71.3589 90.7825 70.9777 90.5141 70.706C90.2489 70.4342 89.8462 70.2983 89.306 70.2983C88.7458 70.2983 88.3067 70.4209 87.9885 70.6662C87.6703 70.9115 87.4466 71.1733 87.3173 71.4517L86.2037 71.054C86.4026 70.59 86.6677 70.2287 86.9992 69.9702C87.3339 69.7083 87.6985 69.526 88.0929 69.4233C88.4906 69.3172 88.8817 69.2642 89.2662 69.2642C89.5115 69.2642 89.7932 69.294 90.1114 69.3537C90.4329 69.41 90.7428 69.5277 91.0411 69.7067C91.3427 69.8857 91.5929 70.1558 91.7918 70.517C91.9906 70.8783 92.0901 71.3622 92.0901 71.9688V77H90.9168V75.9659H90.8571C90.7776 76.1316 90.645 76.3089 90.4594 76.4979C90.2738 76.6868 90.0269 76.8475 89.7186 76.9801C89.4104 77.1127 89.0342 77.179 88.5901 77.179ZM88.769 76.125C89.2331 76.125 89.6242 76.0339 89.9423 75.8516C90.2638 75.6693 90.5058 75.4339 90.6682 75.1456C90.8339 74.8572 90.9168 74.554 90.9168 74.2358V73.1619C90.8671 73.2216 90.7577 73.2763 90.5886 73.326C90.4229 73.3724 90.2307 73.4138 90.0119 73.4503C89.7965 73.4834 89.586 73.5133 89.3805 73.5398C89.1784 73.563 89.0143 73.5829 88.8884 73.5994C88.5834 73.6392 88.2984 73.7038 88.0332 73.7933C87.7714 73.8795 87.5593 74.0104 87.3969 74.1861C87.2378 74.3584 87.1582 74.5937 87.1582 74.892C87.1582 75.2997 87.3091 75.608 87.6107 75.8168C87.9156 76.0223 88.3017 76.125 88.769 76.125ZM94.2316 77V69.3636H95.3651V70.517H95.4446C95.5839 70.1392 95.8357 69.8326 96.2003 69.5973C96.5649 69.362 96.9759 69.2443 97.4333 69.2443C97.5195 69.2443 97.6272 69.246 97.7564 69.2493C97.8857 69.2526 97.9835 69.2576 98.0498 69.2642V70.4574C98.01 70.4474 97.9188 70.4325 97.7763 70.4126C97.6371 70.3894 97.4896 70.3778 97.3339 70.3778C96.9626 70.3778 96.6312 70.4557 96.3395 70.6115C96.0512 70.764 95.8225 70.9761 95.6535 71.2479C95.4877 71.5163 95.4049 71.8229 95.4049 72.1676V77H94.2316ZM102.41 77.1591C101.674 77.1591 101.039 76.9967 100.506 76.6719C99.9754 76.3438 99.5661 75.8864 99.2777 75.2997C98.9927 74.7098 98.8502 74.0237 98.8502 73.2415C98.8502 72.4593 98.9927 71.7699 99.2777 71.1733C99.5661 70.5734 99.9671 70.1061 100.481 69.7713C100.998 69.4332 101.601 69.2642 102.291 69.2642C102.688 69.2642 103.081 69.3305 103.469 69.4631C103.857 69.5956 104.21 69.8111 104.528 70.1094C104.846 70.4044 105.099 70.7955 105.288 71.2827C105.477 71.7699 105.572 72.3698 105.572 73.0824V73.5795H99.6854V72.5653H104.379C104.379 72.1345 104.292 71.75 104.12 71.4119C103.951 71.0739 103.709 70.8071 103.394 70.6115C103.083 70.416 102.715 70.3182 102.291 70.3182C101.823 70.3182 101.419 70.4342 101.077 70.6662C100.739 70.8949 100.479 71.1932 100.297 71.5611C100.115 71.929 100.023 72.3234 100.023 72.7443V73.4205C100.023 73.9972 100.123 74.486 100.322 74.8871C100.524 75.2848 100.804 75.5881 101.162 75.7969C101.52 76.0024 101.936 76.1051 102.41 76.1051C102.718 76.1051 102.996 76.062 103.245 75.9759C103.497 75.8864 103.714 75.7538 103.896 75.5781C104.079 75.3991 104.22 75.1771 104.319 74.9119L105.452 75.2301C105.333 75.6146 105.133 75.9527 104.851 76.2443C104.569 76.5327 104.221 76.758 103.807 76.9205C103.393 77.0795 102.927 77.1591 102.41 77.1591ZM109.604 77.179C109.12 77.179 108.681 77.0878 108.286 76.9055C107.892 76.7199 107.579 76.4531 107.347 76.1051C107.115 75.7538 106.999 75.3295 106.999 74.8324C106.999 74.3949 107.085 74.0402 107.257 73.7685C107.429 73.4934 107.66 73.2779 107.948 73.1222C108.237 72.9664 108.555 72.8504 108.903 72.7741C109.254 72.6946 109.607 72.6316 109.962 72.5852C110.426 72.5256 110.802 72.4808 111.09 72.451C111.382 72.4179 111.594 72.3632 111.727 72.2869C111.862 72.2107 111.93 72.0781 111.93 71.8892V71.8494C111.93 71.3589 111.796 70.9777 111.528 70.706C111.263 70.4342 110.86 70.2983 110.32 70.2983C109.76 70.2983 109.32 70.4209 109.002 70.6662C108.684 70.9115 108.46 71.1733 108.331 71.4517L107.217 71.054C107.416 70.59 107.681 70.2287 108.013 69.9702C108.348 69.7083 108.712 69.526 109.107 69.4233C109.504 69.3172 109.895 69.2642 110.28 69.2642C110.525 69.2642 110.807 69.294 111.125 69.3537C111.447 69.41 111.756 69.5277 112.055 69.7067C112.356 69.8857 112.607 70.1558 112.805 70.517C113.004 70.8783 113.104 71.3622 113.104 71.9688V77H111.93V75.9659H111.871C111.791 76.1316 111.659 76.3089 111.473 76.4979C111.287 76.6868 111.041 76.8475 110.732 76.9801C110.424 77.1127 110.048 77.179 109.604 77.179ZM109.783 76.125C110.247 76.125 110.638 76.0339 110.956 75.8516C111.278 75.6693 111.519 75.4339 111.682 75.1456C111.848 74.8572 111.93 74.554 111.93 74.2358V73.1619C111.881 73.2216 111.771 73.2763 111.602 73.326C111.437 73.3724 111.244 73.4138 111.026 73.4503C110.81 73.4834 110.6 73.5133 110.394 73.5398C110.192 73.563 110.028 73.5829 109.902 73.5994C109.597 73.6392 109.312 73.7038 109.047 73.7933C108.785 73.8795 108.573 74.0104 108.411 74.1861C108.251 74.3584 108.172 74.5937 108.172 74.892C108.172 75.2997 108.323 75.608 108.624 75.8168C108.929 76.0223 109.315 76.125 109.783 76.125Z" fill="#7A7A7A"/>
</g>
<defs>
<clipPath id="clip0_3066_5371">
<rect width="135" height="96" fill="white" transform="translate(0.333496)"/>
</clipPath>
</defs>
</svg>
