<svg width="136" height="96" viewBox="0 0 136 96" fill="none" xmlns="http://www.w3.org/2000/svg">
<path d="M75.2497 45.75V42.9167C74.874 42.9167 74.5136 42.7674 74.2479 42.5017C73.9823 42.2361 73.833 41.8757 73.833 41.5V40.0833C73.833 39.3319 74.1315 38.6112 74.6629 38.0799C75.1942 37.5485 75.9149 37.25 76.6663 37.25H79.4997C80.2511 37.25 80.9718 37.5485 81.5031 38.0799C82.0345 38.6112 82.333 39.3319 82.333 40.0833V41.5C82.333 41.8757 82.1838 42.2361 81.9181 42.5017C81.6524 42.7674 81.2921 42.9167 80.9163 42.9167" stroke="#7A7A7A" stroke-width="2" stroke-linecap="round" stroke-linejoin="round"/>
<path d="M78.0833 37.25V25.2083C78.0833 23.8933 77.5609 22.6321 76.6311 21.7023C75.7012 20.7724 74.44 20.25 73.125 20.25C71.81 20.25 70.5488 20.7724 69.6189 21.7023C68.6891 22.6321 68.1667 23.8933 68.1667 25.2083V40.7917C68.1667 42.1067 67.6443 43.3679 66.7144 44.2977C65.7845 45.2276 64.5234 45.75 63.2083 45.75C61.8933 45.75 60.6321 45.2276 59.7023 44.2977C58.7724 43.3679 58.25 42.1067 58.25 40.7917V28.75" stroke="#7A7A7A" stroke-width="2" stroke-linecap="round" stroke-linejoin="round"/>
<path d="M80.9167 45.7498V42.9165H75.25" stroke="#7A7A7A" stroke-width="2" stroke-linecap="round" stroke-linejoin="round"/>
<path d="M55.4165 23.0833H61.0832V20.25" stroke="#7A7A7A" stroke-width="2" stroke-linecap="round" stroke-linejoin="round"/>
<path d="M61.0833 23.0833C61.4591 23.0833 61.8194 23.2326 62.0851 23.4983C62.3507 23.7639 62.5 24.1243 62.5 24.5V25.9167C62.5 26.6681 62.2015 27.3888 61.6701 27.9201C61.1388 28.4515 60.4181 28.75 59.6667 28.75H56.8333C56.0819 28.75 55.3612 28.4515 54.8299 27.9201C54.2985 27.3888 54 26.6681 54 25.9167V24.5C54 24.1243 54.1493 23.7639 54.4149 23.4983C54.6806 23.2326 55.0409 23.0833 55.4167 23.0833V20.25" stroke="#7A7A7A" stroke-width="2" stroke-linecap="round" stroke-linejoin="round"/>
<path d="M5.39946 77V66.8182H8.8398C9.63857 66.8182 10.2915 66.9624 10.7986 67.2507C11.309 67.5357 11.6869 67.9219 11.9321 68.4091C12.1774 68.8963 12.3 69.4399 12.3 70.0398C12.3 70.6397 12.1774 71.1849 11.9321 71.6754C11.6902 72.166 11.3157 72.5571 10.8085 72.8487C10.3014 73.1371 9.65183 73.2812 8.85969 73.2812H6.39378V72.1875H8.81991C9.36679 72.1875 9.80595 72.093 10.1374 71.9041C10.4688 71.7152 10.7091 71.46 10.8583 71.1385C11.0107 70.8137 11.087 70.4474 11.087 70.0398C11.087 69.6321 11.0107 69.2675 10.8583 68.946C10.7091 68.6245 10.4672 68.3726 10.1324 68.1903C9.79766 68.0047 9.35353 67.9119 8.80003 67.9119H6.63241V77H5.39946ZM17.1473 77.1591C16.4579 77.1591 15.8531 76.995 15.3327 76.6669C14.8157 76.3388 14.4113 75.8797 14.1196 75.2898C13.8313 74.6998 13.6871 74.0104 13.6871 73.2216C13.6871 72.4261 13.8313 71.7318 14.1196 71.1385C14.4113 70.5452 14.8157 70.0845 15.3327 69.7564C15.8531 69.4283 16.4579 69.2642 17.1473 69.2642C17.8367 69.2642 18.4399 69.4283 18.957 69.7564C19.4773 70.0845 19.8817 70.5452 20.1701 71.1385C20.4617 71.7318 20.6076 72.4261 20.6076 73.2216C20.6076 74.0104 20.4617 74.6998 20.1701 75.2898C19.8817 75.8797 19.4773 76.3388 18.957 76.6669C18.4399 76.995 17.8367 77.1591 17.1473 77.1591ZM17.1473 76.1051C17.671 76.1051 18.1019 75.9709 18.4399 75.7024C18.778 75.4339 19.0282 75.081 19.1907 74.6435C19.3531 74.206 19.4343 73.732 19.4343 73.2216C19.4343 72.7112 19.3531 72.2356 19.1907 71.7947C19.0282 71.3539 18.778 70.9976 18.4399 70.7259C18.1019 70.4541 17.671 70.3182 17.1473 70.3182C16.6237 70.3182 16.1928 70.4541 15.8547 70.7259C15.5166 70.9976 15.2664 71.3539 15.104 71.7947C14.9416 72.2356 14.8604 72.7112 14.8604 73.2216C14.8604 73.732 14.9416 74.206 15.104 74.6435C15.2664 75.081 15.5166 75.4339 15.8547 75.7024C16.1928 75.9709 16.6237 76.1051 17.1473 76.1051ZM23.8689 77L21.5422 69.3636H22.7752L24.4257 75.2102H24.5053L26.136 69.3636H27.3888L28.9996 75.1903H29.0791L30.7297 69.3636H31.9627L29.636 77H28.4826L26.8121 71.1335H26.6928L25.0223 77H23.8689ZM36.4557 77.1591C35.7199 77.1591 35.0852 76.9967 34.5516 76.6719C34.0213 76.3438 33.612 75.8864 33.3236 75.2997C33.0386 74.7098 32.8961 74.0237 32.8961 73.2415C32.8961 72.4593 33.0386 71.7699 33.3236 71.1733C33.612 70.5734 34.013 70.1061 34.5268 69.7713C35.0438 69.4332 35.647 69.2642 36.3364 69.2642C36.7342 69.2642 37.1269 69.3305 37.5147 69.4631C37.9025 69.5956 38.2555 69.8111 38.5736 70.1094C38.8918 70.4044 39.1454 70.7955 39.3343 71.2827C39.5232 71.7699 39.6177 72.3698 39.6177 73.0824V73.5795H33.7313V72.5653H38.4245C38.4245 72.1345 38.3383 71.75 38.166 71.4119C37.9969 71.0739 37.755 70.8071 37.4401 70.6115C37.1286 70.416 36.7607 70.3182 36.3364 70.3182C35.8691 70.3182 35.4647 70.4342 35.1234 70.6662C34.7853 70.8949 34.5251 71.1932 34.3428 71.5611C34.1605 71.929 34.0694 72.3234 34.0694 72.7443V73.4205C34.0694 73.9972 34.1688 74.486 34.3677 74.8871C34.5699 75.2848 34.8499 75.5881 35.2079 75.7969C35.5658 76.0024 35.9818 76.1051 36.4557 76.1051C36.764 76.1051 37.0424 76.062 37.291 75.9759C37.5429 75.8864 37.76 75.7538 37.9422 75.5781C38.1245 75.3991 38.2654 75.1771 38.3648 74.9119L39.4984 75.2301C39.379 75.6146 39.1785 75.9527 38.8968 76.2443C38.6151 76.5327 38.2671 76.758 37.8528 76.9205C37.4385 77.0795 36.9728 77.1591 36.4557 77.1591ZM41.4025 77V69.3636H42.536V70.517H42.6155C42.7547 70.1392 43.0066 69.8326 43.3712 69.5973C43.7358 69.362 44.1468 69.2443 44.6042 69.2443C44.6904 69.2443 44.7981 69.246 44.9273 69.2493C45.0566 69.2526 45.1544 69.2576 45.2207 69.2642V70.4574C45.1809 70.4474 45.0897 70.4325 44.9472 70.4126C44.808 70.3894 44.6605 70.3778 44.5047 70.3778C44.1335 70.3778 43.8021 70.4557 43.5104 70.6115C43.2221 70.764 42.9934 70.9761 42.8244 71.2479C42.6586 71.5163 42.5758 71.8229 42.5758 72.1676V77H41.4025ZM50.7081 77V66.8182H54.2677C54.977 66.8182 55.562 66.9408 56.0227 67.1861C56.4834 67.428 56.8264 67.7545 57.0518 68.1655C57.2772 68.5732 57.3899 69.0256 57.3899 69.5227C57.3899 69.9602 57.312 70.3215 57.1562 70.6065C57.0037 70.8916 56.8016 71.117 56.5497 71.2827C56.3011 71.4484 56.031 71.571 55.7393 71.6506V71.75C56.0509 71.7699 56.3641 71.8793 56.6789 72.0781C56.9938 72.277 57.2573 72.562 57.4694 72.9332C57.6815 73.3045 57.7876 73.7585 57.7876 74.2955C57.7876 74.8059 57.6716 75.2649 57.4396 75.6726C57.2076 76.0803 56.8413 76.4034 56.3409 76.642C55.8404 76.8807 55.1891 77 54.387 77H50.7081ZM51.941 75.9062H54.387C55.1924 75.9062 55.7642 75.7505 56.1022 75.4389C56.4436 75.1241 56.6143 74.7429 56.6143 74.2955C56.6143 73.9508 56.5265 73.6326 56.3508 73.3409C56.1751 73.0459 55.9249 72.8106 55.6001 72.6349C55.2753 72.456 54.8908 72.3665 54.4467 72.3665H51.941V75.9062ZM51.941 71.2926H54.2279C54.5992 71.2926 54.9339 71.2197 55.2322 71.0739C55.5338 70.928 55.7724 70.7225 55.9481 70.4574C56.1271 70.1922 56.2166 69.8807 56.2166 69.5227C56.2166 69.0753 56.0608 68.6958 55.7492 68.3842C55.4377 68.0694 54.9438 67.9119 54.2677 67.9119H51.941V71.2926ZM61.9016 77.179C61.4177 77.179 60.9785 77.0878 60.5841 76.9055C60.1897 76.7199 59.8765 76.4531 59.6445 76.1051C59.4125 75.7538 59.2965 75.3295 59.2965 74.8324C59.2965 74.3949 59.3826 74.0402 59.555 73.7685C59.7273 73.4934 59.9577 73.2779 60.246 73.1222C60.5344 72.9664 60.8526 72.8504 61.2006 72.7741C61.5519 72.6946 61.9049 72.6316 62.2595 72.5852C62.7236 72.5256 63.0997 72.4808 63.3881 72.451C63.6798 72.4179 63.8919 72.3632 64.0245 72.2869C64.1603 72.2107 64.2283 72.0781 64.2283 71.8892V71.8494C64.2283 71.3589 64.0941 70.9777 63.8256 70.706C63.5604 70.4342 63.1577 70.2983 62.6175 70.2983C62.0574 70.2983 61.6182 70.4209 61.3 70.6662C60.9818 70.9115 60.7581 71.1733 60.6289 71.4517L59.5152 71.054C59.7141 70.59 59.9792 70.2287 60.3107 69.9702C60.6454 69.7083 61.01 69.526 61.4044 69.4233C61.8022 69.3172 62.1933 69.2642 62.5777 69.2642C62.823 69.2642 63.1047 69.294 63.4229 69.3537C63.7444 69.41 64.0543 69.5277 64.3526 69.7067C64.6542 69.8857 64.9044 70.1558 65.1033 70.517C65.3022 70.8783 65.4016 71.3622 65.4016 71.9688V77H64.2283V75.9659H64.1686C64.0891 76.1316 63.9565 76.3089 63.7709 76.4979C63.5853 76.6868 63.3384 76.8475 63.0301 76.9801C62.7219 77.1127 62.3457 77.179 61.9016 77.179ZM62.0806 76.125C62.5446 76.125 62.9357 76.0339 63.2539 75.8516C63.5754 75.6693 63.8173 75.4339 63.9797 75.1456C64.1454 74.8572 64.2283 74.554 64.2283 74.2358V73.1619C64.1786 73.2216 64.0692 73.2763 63.9002 73.326C63.7344 73.3724 63.5422 73.4138 63.3235 73.4503C63.108 73.4834 62.8976 73.5133 62.6921 73.5398C62.4899 73.563 62.3258 73.5829 62.1999 73.5994C61.895 73.6392 61.6099 73.7038 61.3448 73.7933C61.0829 73.8795 60.8708 74.0104 60.7084 74.1861C60.5493 74.3584 60.4698 74.5937 60.4698 74.892C60.4698 75.2997 60.6206 75.608 60.9222 75.8168C61.2271 76.0223 61.6132 76.125 62.0806 76.125ZM70.6454 77.1591C69.9295 77.1591 69.313 76.9901 68.7959 76.652C68.2789 76.3139 67.8812 75.8482 67.6028 75.255C67.3244 74.6617 67.1851 73.9839 67.1851 73.2216C67.1851 72.446 67.3277 71.7616 67.6127 71.1683C67.9011 70.5717 68.3021 70.1061 68.8158 69.7713C69.3329 69.4332 69.9361 69.2642 70.6255 69.2642C71.1624 69.2642 71.6463 69.3636 72.0772 69.5625C72.5081 69.7614 72.861 70.0398 73.1361 70.3977C73.4112 70.7557 73.5819 71.1733 73.6482 71.6506H72.4749C72.3854 71.3026 72.1866 70.9943 71.8783 70.7259C71.5734 70.4541 71.1624 70.3182 70.6454 70.3182C70.188 70.3182 69.7869 70.4375 69.4422 70.6761C69.1009 70.9115 68.8341 71.2446 68.6418 71.6754C68.4529 72.103 68.3584 72.6051 68.3584 73.1818C68.3584 73.7718 68.4512 74.2855 68.6369 74.723C68.8258 75.1605 69.0909 75.5002 69.4323 75.7422C69.777 75.9841 70.1814 76.1051 70.6454 76.1051C70.9503 76.1051 71.2271 76.0521 71.4756 75.946C71.7242 75.84 71.9347 75.6875 72.107 75.4886C72.2794 75.2898 72.402 75.0511 72.4749 74.7727H73.6482C73.5819 75.2235 73.4179 75.6295 73.156 75.9908C72.8975 76.3487 72.5545 76.6338 72.1269 76.8459C71.7027 77.0547 71.2088 77.1591 70.6454 77.1591ZM76.4572 74.2159L76.4373 72.7642H76.6759L80.0168 69.3636H81.4685L77.9089 72.9631H77.8094L76.4572 74.2159ZM75.3634 77V66.8182H76.5367V77H75.3634ZM80.2157 77L77.2327 73.2216L78.068 72.4062L81.7072 77H80.2157ZM91.7286 73.8778V69.3636H92.9019V77H91.7286V75.7074H91.6491C91.4701 76.0952 91.1917 76.425 90.8139 76.6967C90.436 76.9652 89.9588 77.0994 89.3821 77.0994C88.9048 77.0994 88.4805 76.995 88.1093 76.7862C87.7381 76.5741 87.4465 76.2559 87.2343 75.8317C87.0222 75.4041 86.9161 74.8655 86.9161 74.2159V69.3636H88.0894V74.1364C88.0894 74.6932 88.2452 75.1373 88.5568 75.4688C88.8716 75.8002 89.2727 75.9659 89.7599 75.9659C90.0516 75.9659 90.3482 75.8913 90.6498 75.7422C90.9547 75.593 91.2099 75.3643 91.4154 75.0561C91.6242 74.7479 91.7286 74.3551 91.7286 73.8778ZM95.0509 79.8636V69.3636H96.1844V70.5767H96.3236C96.4098 70.4441 96.5291 70.2751 96.6816 70.0696C96.8374 69.8608 97.0594 69.6752 97.3478 69.5128C97.6395 69.3471 98.0339 69.2642 98.531 69.2642C99.174 69.2642 99.7408 69.425 100.231 69.7464C100.722 70.0679 101.105 70.5237 101.38 71.1136C101.655 71.7036 101.792 72.3996 101.792 73.2017C101.792 74.0104 101.655 74.7114 101.38 75.3047C101.105 75.8946 100.723 76.352 100.236 76.6768C99.7491 76.9983 99.1873 77.1591 98.5509 77.1591C98.0604 77.1591 97.6676 77.0779 97.3726 76.9155C97.0777 76.7498 96.8506 76.5625 96.6915 76.3537C96.5324 76.1416 96.4098 75.9659 96.3236 75.8267H96.2242V79.8636H95.0509ZM96.2043 73.1818C96.2043 73.7585 96.2888 74.2673 96.4579 74.7081C96.6269 75.1456 96.8738 75.4886 97.1986 75.7372C97.5235 75.9825 97.9212 76.1051 98.3918 76.1051C98.8824 76.1051 99.2917 75.9759 99.6198 75.7173C99.9512 75.4555 100.2 75.1042 100.366 74.6634C100.535 74.2192 100.619 73.7254 100.619 73.1818C100.619 72.6449 100.536 72.161 100.371 71.7301C100.208 71.2959 99.9612 70.9529 99.6297 70.701C99.3016 70.4458 98.889 70.3182 98.3918 70.3182C97.9146 70.3182 97.5135 70.4392 97.1887 70.6811C96.8639 70.9197 96.6186 71.2545 96.4529 71.6854C96.2872 72.1129 96.2043 72.6117 96.2043 73.1818ZM107.957 72.0881V73.1818H103.503V72.0881H107.957ZM110.181 77V66.8182H116.286V67.9119H111.414V71.3523H115.828V72.446H111.414V77H110.181ZM122.572 73.8778V69.3636H123.746V77H122.572V75.7074H122.493C122.314 76.0952 122.035 76.425 121.658 76.6967C121.28 76.9652 120.803 77.0994 120.226 77.0994C119.749 77.0994 119.324 76.995 118.953 76.7862C118.582 76.5741 118.29 76.2559 118.078 75.8317C117.866 75.4041 117.76 74.8655 117.76 74.2159V69.3636H118.933V74.1364C118.933 74.6932 119.089 75.1373 119.401 75.4688C119.715 75.8002 120.116 75.9659 120.604 75.9659C120.895 75.9659 121.192 75.8913 121.494 75.7422C121.798 75.593 122.054 75.3643 122.259 75.0561C122.468 74.7479 122.572 74.3551 122.572 73.8778ZM127.068 66.8182V77H125.895V66.8182H127.068ZM130.39 66.8182V77H129.217V66.8182H130.39Z" fill="#7A7A7A"/>
</svg>
