<svg width="146" height="96" viewBox="0 0 146 96" fill="none" xmlns="http://www.w3.org/2000/svg">
<path d="M79.9167 45.75V42.9167C79.5409 42.9167 79.1806 42.7674 78.9149 42.5017C78.6493 42.2361 78.5 41.8757 78.5 41.5V40.0833C78.5 39.3319 78.7985 38.6112 79.3299 38.0799C79.8612 37.5485 80.5819 37.25 81.3333 37.25H84.1667C84.9181 37.25 85.6388 37.5485 86.1701 38.0799C86.7015 38.6112 87 39.3319 87 40.0833V41.5C87 41.8757 86.8507 42.2361 86.5851 42.5017C86.3194 42.7674 85.9591 42.9167 85.5833 42.9167" stroke="#7A7A7A" stroke-width="2" stroke-linecap="round" stroke-linejoin="round"/>
<path d="M82.7503 37.25V25.2083C82.7503 23.8933 82.2279 22.6321 81.2981 21.7023C80.3682 20.7724 79.107 20.25 77.792 20.25C76.477 20.25 75.2158 20.7724 74.2859 21.7023C73.3561 22.6321 72.8337 23.8933 72.8337 25.2083V40.7917C72.8337 42.1067 72.3113 43.3679 71.3814 44.2977C70.4515 45.2276 69.1904 45.75 67.8753 45.75C66.5603 45.75 65.2991 45.2276 64.3693 44.2977C63.4394 43.3679 62.917 42.1067 62.917 40.7917V28.75" stroke="#7A7A7A" stroke-width="2" stroke-linecap="round" stroke-linejoin="round"/>
<path d="M85.5837 45.7498V42.9165H79.917" stroke="#7A7A7A" stroke-width="2" stroke-linecap="round" stroke-linejoin="round"/>
<path d="M60.0835 23.0833H65.7502V20.25" stroke="#7A7A7A" stroke-width="2" stroke-linecap="round" stroke-linejoin="round"/>
<path d="M65.7503 23.0833C66.126 23.0833 66.4864 23.2326 66.7521 23.4983C67.0177 23.7639 67.167 24.1243 67.167 24.5V25.9167C67.167 26.6681 66.8685 27.3888 66.3371 27.9201C65.8058 28.4515 65.0851 28.75 64.3337 28.75H61.5003C60.7489 28.75 60.0282 28.4515 59.4969 27.9201C58.9655 27.3888 58.667 26.6681 58.667 25.9167V24.5C58.667 24.1243 58.8162 23.7639 59.0819 23.4983C59.3476 23.2326 59.7079 23.0833 60.0837 23.0833V20.25" stroke="#7A7A7A" stroke-width="2" stroke-linecap="round" stroke-linejoin="round"/>
<path d="M0.566451 77V66.8182H4.00679C4.80556 66.8182 5.4585 66.9624 5.9656 67.2507C6.47602 67.5357 6.85386 67.9219 7.09912 68.4091C7.34439 68.8963 7.46702 69.4399 7.46702 70.0398C7.46702 70.6397 7.34439 71.1849 7.09912 71.6754C6.85717 72.166 6.48264 72.5571 5.97554 72.8487C5.46844 73.1371 4.81882 73.2812 4.02668 73.2812H1.56077V72.1875H3.98691C4.53378 72.1875 4.97294 72.093 5.30438 71.9041C5.63582 71.7152 5.87611 71.46 6.02526 71.1385C6.17772 70.8137 6.25395 70.4474 6.25395 70.0398C6.25395 69.6321 6.17772 69.2675 6.02526 68.946C5.87611 68.6245 5.63416 68.3726 5.29941 68.1903C4.96465 68.0047 4.52052 67.9119 3.96702 67.9119H1.79941V77H0.566451ZM12.3143 77.1591C11.6249 77.1591 11.02 76.995 10.4997 76.6669C9.98264 76.3388 9.57829 75.8797 9.28662 75.2898C8.99827 74.6998 8.85409 74.0104 8.85409 73.2216C8.85409 72.4261 8.99827 71.7318 9.28662 71.1385C9.57829 70.5452 9.98264 70.0845 10.4997 69.7564C11.02 69.4283 11.6249 69.2642 12.3143 69.2642C13.0037 69.2642 13.6069 69.4283 14.124 69.7564C14.6443 70.0845 15.0487 70.5452 15.337 71.1385C15.6287 71.7318 15.7745 72.4261 15.7745 73.2216C15.7745 74.0104 15.6287 74.6998 15.337 75.2898C15.0487 75.8797 14.6443 76.3388 14.124 76.6669C13.6069 76.995 13.0037 77.1591 12.3143 77.1591ZM12.3143 76.1051C12.838 76.1051 13.2689 75.9709 13.6069 75.7024C13.945 75.4339 14.1952 75.081 14.3576 74.6435C14.52 74.206 14.6013 73.732 14.6013 73.2216C14.6013 72.7112 14.52 72.2356 14.3576 71.7947C14.1952 71.3539 13.945 70.9976 13.6069 70.7259C13.2689 70.4541 12.838 70.3182 12.3143 70.3182C11.7906 70.3182 11.3598 70.4541 11.0217 70.7259C10.6836 70.9976 10.4334 71.3539 10.271 71.7947C10.1086 72.2356 10.0274 72.7112 10.0274 73.2216C10.0274 73.732 10.1086 74.206 10.271 74.6435C10.4334 75.081 10.6836 75.4339 11.0217 75.7024C11.3598 75.9709 11.7906 76.1051 12.3143 76.1051ZM19.0359 77L16.7092 69.3636H17.9422L19.5927 75.2102H19.6723L21.303 69.3636H22.5558L24.1666 75.1903H24.2461L25.8967 69.3636H27.1297L24.803 77H23.6495L21.9791 71.1335H21.8598L20.1893 77H19.0359ZM31.6227 77.1591C30.8869 77.1591 30.2522 76.9967 29.7186 76.6719C29.1883 76.3438 28.779 75.8864 28.4906 75.2997C28.2056 74.7098 28.0631 74.0237 28.0631 73.2415C28.0631 72.4593 28.2056 71.7699 28.4906 71.1733C28.779 70.5734 29.18 70.1061 29.6938 69.7713C30.2108 69.4332 30.814 69.2642 31.5034 69.2642C31.9011 69.2642 32.2939 69.3305 32.6817 69.4631C33.0695 69.5956 33.4225 69.8111 33.7406 70.1094C34.0588 70.4044 34.3124 70.7955 34.5013 71.2827C34.6902 71.7699 34.7847 72.3698 34.7847 73.0824V73.5795H28.8983V72.5653H33.5915C33.5915 72.1345 33.5053 71.75 33.333 71.4119C33.1639 71.0739 32.922 70.8071 32.6071 70.6115C32.2956 70.416 31.9277 70.3182 31.5034 70.3182C31.0361 70.3182 30.6317 70.4342 30.2903 70.6662C29.9523 70.8949 29.6921 71.1932 29.5098 71.5611C29.3275 71.929 29.2364 72.3234 29.2364 72.7443V73.4205C29.2364 73.9972 29.3358 74.486 29.5347 74.8871C29.7368 75.2848 30.0169 75.5881 30.3749 75.7969C30.7328 76.0024 31.1488 76.1051 31.6227 76.1051C31.931 76.1051 32.2094 76.062 32.458 75.9759C32.7099 75.8864 32.927 75.7538 33.1092 75.5781C33.2915 75.3991 33.4324 75.1771 33.5318 74.9119L34.6654 75.2301C34.546 75.6146 34.3455 75.9527 34.0638 76.2443C33.7821 76.5327 33.4341 76.758 33.0198 76.9205C32.6055 77.0795 32.1398 77.1591 31.6227 77.1591ZM36.5695 77V69.3636H37.703V70.517H37.7825C37.9217 70.1392 38.1736 69.8326 38.5382 69.5973C38.9028 69.362 39.3138 69.2443 39.7712 69.2443C39.8573 69.2443 39.9651 69.246 40.0943 69.2493C40.2236 69.2526 40.3214 69.2576 40.3877 69.2642V70.4574C40.3479 70.4474 40.2567 70.4325 40.1142 70.4126C39.975 70.3894 39.8275 70.3778 39.6717 70.3778C39.3005 70.3778 38.9691 70.4557 38.6774 70.6115C38.3891 70.764 38.1604 70.9761 37.9913 71.2479C37.8256 71.5163 37.7428 71.8229 37.7428 72.1676V77H36.5695ZM45.875 77V66.8182H49.4347C50.144 66.8182 50.729 66.9408 51.1897 67.1861C51.6504 67.428 51.9934 67.7545 52.2188 68.1655C52.4442 68.5732 52.5569 69.0256 52.5569 69.5227C52.5569 69.9602 52.479 70.3215 52.3232 70.6065C52.1707 70.8916 51.9686 71.117 51.7167 71.2827C51.4681 71.4484 51.198 71.571 50.9063 71.6506V71.75C51.2178 71.7699 51.5311 71.8793 51.8459 72.0781C52.1608 72.277 52.4243 72.562 52.6364 72.9332C52.8485 73.3045 52.9546 73.7585 52.9546 74.2955C52.9546 74.8059 52.8386 75.2649 52.6066 75.6726C52.3746 76.0803 52.0083 76.4034 51.5079 76.642C51.0074 76.8807 50.3561 77 49.554 77H45.875ZM47.108 75.9062H49.554C50.3594 75.9062 50.9312 75.7505 51.2692 75.4389C51.6106 75.1241 51.7813 74.7429 51.7813 74.2955C51.7813 73.9508 51.6935 73.6326 51.5178 73.3409C51.3421 73.0459 51.0919 72.8106 50.7671 72.6349C50.4423 72.456 50.0578 72.3665 49.6137 72.3665H47.108V75.9062ZM47.108 71.2926H49.3949C49.7661 71.2926 50.1009 71.2197 50.3992 71.0739C50.7008 70.928 50.9394 70.7225 51.1151 70.4574C51.2941 70.1922 51.3836 69.8807 51.3836 69.5227C51.3836 69.0753 51.2278 68.6958 50.9162 68.3842C50.6047 68.0694 50.1108 67.9119 49.4347 67.9119H47.108V71.2926ZM57.0686 77.179C56.5847 77.179 56.1455 77.0878 55.7511 76.9055C55.3567 76.7199 55.0435 76.4531 54.8115 76.1051C54.5795 75.7538 54.4635 75.3295 54.4635 74.8324C54.4635 74.3949 54.5496 74.0402 54.722 73.7685C54.8943 73.4934 55.1247 73.2779 55.413 73.1222C55.7014 72.9664 56.0196 72.8504 56.3676 72.7741C56.7189 72.6946 57.0719 72.6316 57.4265 72.5852C57.8906 72.5256 58.2667 72.4808 58.5551 72.451C58.8468 72.4179 59.0589 72.3632 59.1915 72.2869C59.3273 72.2107 59.3953 72.0781 59.3953 71.8892V71.8494C59.3953 71.3589 59.2611 70.9777 58.9926 70.706C58.7274 70.4342 58.3247 70.2983 57.7845 70.2983C57.2244 70.2983 56.7852 70.4209 56.467 70.6662C56.1488 70.9115 55.9251 71.1733 55.7959 71.4517L54.6822 71.054C54.8811 70.59 55.1462 70.2287 55.4777 69.9702C55.8124 69.7083 56.177 69.526 56.5714 69.4233C56.9691 69.3172 57.3602 69.2642 57.7447 69.2642C57.99 69.2642 58.2717 69.294 58.5899 69.3537C58.9114 69.41 59.2213 69.5277 59.5196 69.7067C59.8212 69.8857 60.0714 70.1558 60.2703 70.517C60.4691 70.8783 60.5686 71.3622 60.5686 71.9688V77H59.3953V75.9659H59.3356C59.2561 76.1316 59.1235 76.3089 58.9379 76.4979C58.7523 76.6868 58.5054 76.8475 58.1971 76.9801C57.8889 77.1127 57.5127 77.179 57.0686 77.179ZM57.2476 76.125C57.7116 76.125 58.1027 76.0339 58.4209 75.8516C58.7424 75.6693 58.9843 75.4339 59.1467 75.1456C59.3124 74.8572 59.3953 74.554 59.3953 74.2358V73.1619C59.3456 73.2216 59.2362 73.2763 59.0672 73.326C58.9014 73.3724 58.7092 73.4138 58.4905 73.4503C58.275 73.4834 58.0646 73.5133 57.8591 73.5398C57.6569 73.563 57.4928 73.5829 57.3669 73.5994C57.062 73.6392 56.7769 73.7038 56.5118 73.7933C56.2499 73.8795 56.0378 74.0104 55.8754 74.1861C55.7163 74.3584 55.6368 74.5937 55.6368 74.892C55.6368 75.2997 55.7876 75.608 56.0892 75.8168C56.3941 76.0223 56.7802 76.125 57.2476 76.125ZM65.8124 77.1591C65.0965 77.1591 64.48 76.9901 63.9629 76.652C63.4459 76.3139 63.0482 75.8482 62.7698 75.255C62.4913 74.6617 62.3521 73.9839 62.3521 73.2216C62.3521 72.446 62.4947 71.7616 62.7797 71.1683C63.068 70.5717 63.4691 70.1061 63.9828 69.7713C64.4999 69.4332 65.1031 69.2642 65.7925 69.2642C66.3294 69.2642 66.8133 69.3636 67.2442 69.5625C67.6751 69.7614 68.028 70.0398 68.3031 70.3977C68.5782 70.7557 68.7489 71.1733 68.8152 71.6506H67.6419C67.5524 71.3026 67.3536 70.9943 67.0453 70.7259C66.7404 70.4541 66.3294 70.3182 65.8124 70.3182C65.355 70.3182 64.9539 70.4375 64.6092 70.6761C64.2679 70.9115 64.0011 71.2446 63.8088 71.6754C63.6199 72.103 63.5254 72.6051 63.5254 73.1818C63.5254 73.7718 63.6182 74.2855 63.8038 74.723C63.9928 75.1605 64.2579 75.5002 64.5993 75.7422C64.944 75.9841 65.3484 76.1051 65.8124 76.1051C66.1173 76.1051 66.394 76.0521 66.6426 75.946C66.8912 75.84 67.1017 75.6875 67.274 75.4886C67.4464 75.2898 67.569 75.0511 67.6419 74.7727H68.8152C68.7489 75.2235 68.5849 75.6295 68.323 75.9908C68.0645 76.3487 67.7215 76.6338 67.2939 76.8459C66.8697 77.0547 66.3758 77.1591 65.8124 77.1591ZM71.6242 74.2159L71.6043 72.7642H71.8429L75.1838 69.3636H76.6355L73.0759 72.9631H72.9764L71.6242 74.2159ZM70.5304 77V66.8182H71.7037V77H70.5304ZM75.3827 77L72.3997 73.2216L73.235 72.4062L76.8742 77H75.3827ZM86.8956 73.8778V69.3636H88.0689V77H86.8956V75.7074H86.8161C86.6371 76.0952 86.3587 76.425 85.9809 76.6967C85.603 76.9652 85.1258 77.0994 84.5491 77.0994C84.0718 77.0994 83.6475 76.995 83.2763 76.7862C82.9051 76.5741 82.6134 76.2559 82.4013 75.8317C82.1892 75.4041 82.0831 74.8655 82.0831 74.2159V69.3636H83.2564V74.1364C83.2564 74.6932 83.4122 75.1373 83.7238 75.4688C84.0386 75.8002 84.4397 75.9659 84.9269 75.9659C85.2186 75.9659 85.5152 75.8913 85.8168 75.7422C86.1217 75.593 86.3769 75.3643 86.5824 75.0561C86.7912 74.7479 86.8956 74.3551 86.8956 73.8778ZM90.2179 79.8636V69.3636H91.3514V70.5767H91.4906C91.5768 70.4441 91.6961 70.2751 91.8486 70.0696C92.0044 69.8608 92.2264 69.6752 92.5148 69.5128C92.8064 69.3471 93.2009 69.2642 93.698 69.2642C94.341 69.2642 94.9078 69.425 95.3983 69.7464C95.8888 70.0679 96.2716 70.5237 96.5467 71.1136C96.8218 71.7036 96.9594 72.3996 96.9594 73.2017C96.9594 74.0104 96.8218 74.7114 96.5467 75.3047C96.2716 75.8946 95.8905 76.352 95.4033 76.6768C94.9161 76.9983 94.3543 77.1591 93.7179 77.1591C93.2274 77.1591 92.8346 77.0779 92.5396 76.9155C92.2447 76.7498 92.0176 76.5625 91.8585 76.3537C91.6994 76.1416 91.5768 75.9659 91.4906 75.8267H91.3912V79.8636H90.2179ZM91.3713 73.1818C91.3713 73.7585 91.4558 74.2673 91.6249 74.7081C91.7939 75.1456 92.0408 75.4886 92.3656 75.7372C92.6904 75.9825 93.0882 76.1051 93.5588 76.1051C94.0493 76.1051 94.4587 75.9759 94.7868 75.7173C95.1182 75.4555 95.3668 75.1042 95.5325 74.6634C95.7016 74.2192 95.7861 73.7254 95.7861 73.1818C95.7861 72.6449 95.7032 72.161 95.5375 71.7301C95.3751 71.2959 95.1282 70.9529 94.7967 70.701C94.4686 70.4458 94.056 70.3182 93.5588 70.3182C93.0815 70.3182 92.6805 70.4392 92.3557 70.6811C92.0309 70.9197 91.7856 71.2545 91.6199 71.6854C91.4542 72.1129 91.3713 72.6117 91.3713 73.1818ZM103.124 72.0881V73.1818H98.6696V72.0881H103.124ZM105.348 77V66.8182H108.788C109.587 66.8182 110.24 66.9624 110.747 67.2507C111.257 67.5357 111.635 67.9219 111.88 68.4091C112.126 68.8963 112.248 69.4399 112.248 70.0398C112.248 70.6397 112.126 71.1849 111.88 71.6754C111.638 72.166 111.264 72.5571 110.757 72.8487C110.25 73.1371 109.6 73.2812 108.808 73.2812H106.342V72.1875H108.768C109.315 72.1875 109.754 72.093 110.086 71.9041C110.417 71.7152 110.657 71.46 110.807 71.1385C110.959 70.8137 111.035 70.4474 111.035 70.0398C111.035 69.6321 110.959 69.2675 110.807 68.946C110.657 68.6245 110.415 68.3726 110.081 68.1903C109.746 68.0047 109.302 67.9119 108.748 67.9119H106.581V77H105.348ZM116.322 77.179C115.839 77.179 115.399 77.0878 115.005 76.9055C114.611 76.7199 114.297 76.4531 114.065 76.1051C113.833 75.7538 113.717 75.3295 113.717 74.8324C113.717 74.3949 113.804 74.0402 113.976 73.7685C114.148 73.4934 114.379 73.2779 114.667 73.1222C114.955 72.9664 115.273 72.8504 115.621 72.7741C115.973 72.6946 116.326 72.6316 116.68 72.5852C117.144 72.5256 117.521 72.4808 117.809 72.451C118.101 72.4179 118.313 72.3632 118.445 72.2869C118.581 72.2107 118.649 72.0781 118.649 71.8892V71.8494C118.649 71.3589 118.515 70.9777 118.246 70.706C117.981 70.4342 117.579 70.2983 117.038 70.2983C116.478 70.2983 116.039 70.4209 115.721 70.6662C115.403 70.9115 115.179 71.1733 115.05 71.4517L113.936 71.054C114.135 70.59 114.4 70.2287 114.732 69.9702C115.066 69.7083 115.431 69.526 115.825 69.4233C116.223 69.3172 116.614 69.2642 116.999 69.2642C117.244 69.2642 117.526 69.294 117.844 69.3537C118.165 69.41 118.475 69.5277 118.773 69.7067C119.075 69.8857 119.325 70.1558 119.524 70.517C119.723 70.8783 119.822 71.3622 119.822 71.9688V77H118.649V75.9659H118.59C118.51 76.1316 118.377 76.3089 118.192 76.4979C118.006 76.6868 117.759 76.8475 117.451 76.9801C117.143 77.1127 116.767 77.179 116.322 77.179ZM116.501 76.125C116.965 76.125 117.357 76.0339 117.675 75.8516C117.996 75.6693 118.238 75.4339 118.401 75.1456C118.566 74.8572 118.649 74.554 118.649 74.2358V73.1619C118.599 73.2216 118.49 73.2763 118.321 73.326C118.155 73.3724 117.963 73.4138 117.744 73.4503C117.529 73.4834 117.318 73.5133 117.113 73.5398C116.911 73.563 116.747 73.5829 116.621 73.5994C116.316 73.6392 116.031 73.7038 115.766 73.7933C115.504 73.8795 115.292 74.0104 115.129 74.1861C114.97 74.3584 114.891 74.5937 114.891 74.892C114.891 75.2997 115.041 75.608 115.343 75.8168C115.648 76.0223 116.034 76.125 116.501 76.125ZM121.964 77V69.3636H123.098V70.517H123.177C123.316 70.1392 123.568 69.8326 123.933 69.5973C124.297 69.362 124.708 69.2443 125.166 69.2443C125.252 69.2443 125.36 69.246 125.489 69.2493C125.618 69.2526 125.716 69.2576 125.782 69.2642V70.4574C125.742 70.4474 125.651 70.4325 125.509 70.4126C125.37 70.3894 125.222 70.3778 125.066 70.3778C124.695 70.3778 124.364 70.4557 124.072 70.6115C123.784 70.764 123.555 70.9761 123.386 71.2479C123.22 71.5163 123.137 71.8229 123.137 72.1676V77H121.964ZM130.973 69.3636V70.358H127.015V69.3636H130.973ZM128.169 67.5341H129.342V74.8125C129.342 75.1439 129.39 75.3925 129.486 75.5582C129.585 75.7206 129.711 75.83 129.864 75.8864C130.02 75.9394 130.184 75.9659 130.356 75.9659C130.485 75.9659 130.591 75.9593 130.674 75.946C130.757 75.9295 130.823 75.9162 130.873 75.9062L131.112 76.9602C131.032 76.9901 130.921 77.0199 130.779 77.0497C130.636 77.0829 130.455 77.0994 130.237 77.0994C129.905 77.0994 129.58 77.0282 129.262 76.8857C128.947 76.7431 128.686 76.526 128.477 76.2344C128.271 75.9427 128.169 75.5748 128.169 75.1307V67.5341ZM132.737 77V69.3636H133.911V77H132.737ZM133.334 68.0909C133.105 68.0909 132.908 68.013 132.742 67.8572C132.58 67.7015 132.499 67.5142 132.499 67.2955C132.499 67.0767 132.58 66.8894 132.742 66.7337C132.908 66.5779 133.105 66.5 133.334 66.5C133.563 66.5 133.758 66.5779 133.921 66.7337C134.086 66.8894 134.169 67.0767 134.169 67.2955C134.169 67.5142 134.086 67.7015 133.921 67.8572C133.758 68.013 133.563 68.0909 133.334 68.0909ZM138.307 77.179C137.823 77.179 137.384 77.0878 136.989 76.9055C136.595 76.7199 136.282 76.4531 136.05 76.1051C135.818 75.7538 135.702 75.3295 135.702 74.8324C135.702 74.3949 135.788 74.0402 135.96 73.7685C136.133 73.4934 136.363 73.2779 136.651 73.1222C136.94 72.9664 137.258 72.8504 137.606 72.7741C137.957 72.6946 138.31 72.6316 138.665 72.5852C139.129 72.5256 139.505 72.4808 139.793 72.451C140.085 72.4179 140.297 72.3632 140.43 72.2869C140.566 72.2107 140.634 72.0781 140.634 71.8892V71.8494C140.634 71.3589 140.499 70.9777 140.231 70.706C139.966 70.4342 139.563 70.2983 139.023 70.2983C138.463 70.2983 138.023 70.4209 137.705 70.6662C137.387 70.9115 137.163 71.1733 137.034 71.4517L135.92 71.054C136.119 70.59 136.385 70.2287 136.716 69.9702C137.051 69.7083 137.415 69.526 137.81 69.4233C138.207 69.3172 138.599 69.2642 138.983 69.2642C139.228 69.2642 139.51 69.294 139.828 69.3537C140.15 69.41 140.46 69.5277 140.758 69.7067C141.059 69.8857 141.31 70.1558 141.509 70.517C141.707 70.8783 141.807 71.3622 141.807 71.9688V77H140.634V75.9659H140.574C140.494 76.1316 140.362 76.3089 140.176 76.4979C139.991 76.6868 139.744 76.8475 139.435 76.9801C139.127 77.1127 138.751 77.179 138.307 77.179ZM138.486 76.125C138.95 76.125 139.341 76.0339 139.659 75.8516C139.981 75.6693 140.223 75.4339 140.385 75.1456C140.551 74.8572 140.634 74.554 140.634 74.2358V73.1619C140.584 73.2216 140.474 73.2763 140.305 73.326C140.14 73.3724 139.947 73.4138 139.729 73.4503C139.513 73.4834 139.303 73.5133 139.097 73.5398C138.895 73.563 138.731 73.5829 138.605 73.5994C138.3 73.6392 138.015 73.7038 137.75 73.7933C137.488 73.8795 137.276 74.0104 137.114 74.1861C136.955 74.3584 136.875 74.5937 136.875 74.892C136.875 75.2997 137.026 75.608 137.327 75.8168C137.632 76.0223 138.019 76.125 138.486 76.125ZM145.122 66.8182V77H143.948V66.8182H145.122Z" fill="#7A7A7A"/>
</svg>
