<svg width="136" height="96" viewBox="0 0 136 96" fill="none" xmlns="http://www.w3.org/2000/svg">
<path d="M53.667 25.9168L59.9145 19.6693C60.1781 19.4042 60.4915 19.1938 60.8368 19.0504C61.182 18.9069 61.5523 18.8332 61.9262 18.8335H73.7412C74.115 18.8332 74.4853 18.9069 74.8305 19.0504C75.1758 19.1938 75.4892 19.4042 75.7528 19.6693L82.0003 25.9168" stroke="#7A7A7A" stroke-width="2" stroke-linecap="round" stroke-linejoin="round"/>
<path d="M56.5 33V44.3333C56.5 45.0848 56.7985 45.8054 57.3299 46.3368C57.8612 46.8682 58.5819 47.1667 59.3333 47.1667H76.3333C77.0848 47.1667 77.8054 46.8682 78.3368 46.3368C78.8682 45.8054 79.1667 45.0848 79.1667 44.3333V33" stroke="#7A7A7A" stroke-width="2" stroke-linecap="round" stroke-linejoin="round"/>
<path d="M72.0835 47.1665V41.4998C72.0835 40.7484 71.785 40.0277 71.2536 39.4964C70.7223 38.965 70.0016 38.6665 69.2502 38.6665H66.4168C65.6654 38.6665 64.9447 38.965 64.4134 39.4964C63.882 40.0277 63.5835 40.7484 63.5835 41.4998V47.1665" stroke="#7A7A7A" stroke-width="2" stroke-linecap="round" stroke-linejoin="round"/>
<path d="M53.667 25.9165H82.0003" stroke="#7A7A7A" stroke-width="2" stroke-linecap="round" stroke-linejoin="round"/>
<path d="M82.0003 25.9165V30.1665C82.0003 30.918 81.7018 31.6386 81.1705 32.17C80.6391 32.7013 79.9184 32.9998 79.167 32.9998C78.3393 32.9543 77.5488 32.6411 76.9145 32.1073C76.7455 31.9852 76.5422 31.9194 76.3337 31.9194C76.1251 31.9194 75.9219 31.9852 75.7528 32.1073C75.1185 32.6411 74.328 32.9543 73.5003 32.9998C72.6726 32.9543 71.8821 32.6411 71.2478 32.1073C71.0788 31.9852 70.8755 31.9194 70.667 31.9194C70.4584 31.9194 70.2552 31.9852 70.0862 32.1073C69.4519 32.6411 68.6614 32.9543 67.8337 32.9998C67.006 32.9543 66.2154 32.6411 65.5812 32.1073C65.4121 31.9852 65.2089 31.9194 65.0003 31.9194C64.7918 31.9194 64.5885 31.9852 64.4195 32.1073C63.7852 32.6411 62.9947 32.9543 62.167 32.9998C61.3393 32.9543 60.5488 32.6411 59.9145 32.1073C59.7455 31.9852 59.5422 31.9194 59.3337 31.9194C59.1251 31.9194 58.9219 31.9852 58.7528 32.1073C58.1185 32.6411 57.328 32.9543 56.5003 32.9998C55.7489 32.9998 55.0282 32.7013 54.4969 32.17C53.9655 31.6386 53.667 30.918 53.667 30.1665V25.9165" stroke="#7A7A7A" stroke-width="2" stroke-linecap="round" stroke-linejoin="round"/>
<path d="M19.6346 69.3636C19.575 68.8598 19.333 68.4688 18.9088 68.1903C18.4845 67.9119 17.9642 67.7727 17.3477 67.7727C16.8969 67.7727 16.5025 67.8456 16.1645 67.9915C15.8297 68.1373 15.5679 68.3378 15.379 68.593C15.1933 68.8482 15.1005 69.1383 15.1005 69.4631C15.1005 69.7348 15.1652 69.9685 15.2944 70.1641C15.427 70.3563 15.596 70.517 15.8015 70.6463C16.007 70.7723 16.2225 70.8767 16.4478 70.9595C16.6732 71.0391 16.8804 71.1037 17.0693 71.1534L18.1034 71.4318C18.3685 71.5014 18.6635 71.5975 18.9883 71.7202C19.3165 71.8428 19.6297 72.0102 19.928 72.2223C20.2296 72.4311 20.4781 72.6996 20.6737 73.0277C20.8692 73.3558 20.967 73.7585 20.967 74.2358C20.967 74.786 20.8228 75.2831 20.5345 75.7273C20.2495 76.1714 19.8318 76.5244 19.2816 76.7862C18.7348 77.0481 18.0702 77.179 17.288 77.179C16.5589 77.179 15.9275 77.0613 15.3939 76.826C14.8636 76.5907 14.4459 76.2625 14.141 75.8416C13.8394 75.4207 13.6687 74.9318 13.629 74.375H14.9017C14.9348 74.7595 15.0641 75.0777 15.2895 75.3295C15.5182 75.5781 15.8065 75.7637 16.1545 75.8864C16.5058 76.0057 16.8837 76.0653 17.288 76.0653C17.7587 76.0653 18.1813 75.9891 18.5558 75.8366C18.9303 75.6809 19.227 75.4654 19.4457 75.1903C19.6645 74.9119 19.7738 74.5871 19.7738 74.2159C19.7738 73.8778 19.6794 73.6027 19.4905 73.3906C19.3015 73.1785 19.053 73.0062 18.7447 72.8736C18.4365 72.741 18.1034 72.625 17.7454 72.5256L16.4926 72.1676C15.6971 71.9389 15.0674 71.6125 14.6034 71.1882C14.1394 70.764 13.9074 70.2088 13.9074 69.5227C13.9074 68.9527 14.0615 68.4555 14.3697 68.0312C14.6813 67.6037 15.0989 67.2723 15.6226 67.0369C16.1495 66.7983 16.7379 66.679 17.3875 66.679C18.0437 66.679 18.6271 66.7966 19.1375 67.032C19.6479 67.264 20.0522 67.5821 20.3505 67.9865C20.6522 68.3909 20.8112 68.8499 20.8278 69.3636H19.6346ZM24.0084 72.4062V77H22.8351V66.8182H24.0084V70.5568H24.1078C24.2868 70.1624 24.5553 69.8492 24.9132 69.6172C25.2745 69.3819 25.7551 69.2642 26.355 69.2642C26.8753 69.2642 27.3311 69.3686 27.7222 69.5774C28.1133 69.7829 28.4165 70.0994 28.632 70.527C28.8507 70.9512 28.9601 71.4915 28.9601 72.1477V77H27.7868V72.2273C27.7868 71.6207 27.6294 71.1518 27.3145 70.8203C27.0029 70.4856 26.5704 70.3182 26.0169 70.3182C25.6324 70.3182 25.2877 70.3994 24.9828 70.5618C24.6812 70.7242 24.4426 70.9612 24.2669 71.2727C24.0946 71.5843 24.0084 71.9621 24.0084 72.4062ZM34.2089 77.1591C33.5195 77.1591 32.9146 76.995 32.3942 76.6669C31.8772 76.3388 31.4728 75.8797 31.1812 75.2898C30.8928 74.6998 30.7486 74.0104 30.7486 73.2216C30.7486 72.4261 30.8928 71.7318 31.1812 71.1385C31.4728 70.5452 31.8772 70.0845 32.3942 69.7564C32.9146 69.4283 33.5195 69.2642 34.2089 69.2642C34.8982 69.2642 35.5015 69.4283 36.0185 69.7564C36.5389 70.0845 36.9432 70.5452 37.2316 71.1385C37.5232 71.7318 37.6691 72.4261 37.6691 73.2216C37.6691 74.0104 37.5232 74.6998 37.2316 75.2898C36.9432 75.8797 36.5389 76.3388 36.0185 76.6669C35.5015 76.995 34.8982 77.1591 34.2089 77.1591ZM34.2089 76.1051C34.7325 76.1051 35.1634 75.9709 35.5015 75.7024C35.8395 75.4339 36.0898 75.081 36.2522 74.6435C36.4146 74.206 36.4958 73.732 36.4958 73.2216C36.4958 72.7112 36.4146 72.2356 36.2522 71.7947C36.0898 71.3539 35.8395 70.9976 35.5015 70.7259C35.1634 70.4541 34.7325 70.3182 34.2089 70.3182C33.6852 70.3182 33.2543 70.4541 32.9162 70.7259C32.5782 70.9976 32.3279 71.3539 32.1655 71.7947C32.0031 72.2356 31.9219 72.7112 31.9219 73.2216C31.9219 73.732 32.0031 74.206 32.1655 74.6435C32.3279 75.081 32.5782 75.4339 32.9162 75.7024C33.2543 75.9709 33.6852 76.1051 34.2089 76.1051ZM39.4601 79.8636V69.3636H40.5936V70.5767H40.7328C40.819 70.4441 40.9383 70.2751 41.0908 70.0696C41.2466 69.8608 41.4686 69.6752 41.757 69.5128C42.0486 69.3471 42.443 69.2642 42.9402 69.2642C43.5832 69.2642 44.15 69.425 44.6405 69.7464C45.131 70.0679 45.5138 70.5237 45.7889 71.1136C46.064 71.7036 46.2016 72.3996 46.2016 73.2017C46.2016 74.0104 46.064 74.7114 45.7889 75.3047C45.5138 75.8946 45.1327 76.352 44.6455 76.6768C44.1582 76.9983 43.5965 77.1591 42.9601 77.1591C42.4696 77.1591 42.0768 77.0779 41.7818 76.9155C41.4868 76.7498 41.2598 76.5625 41.1007 76.3537C40.9416 76.1416 40.819 75.9659 40.7328 75.8267H40.6334V79.8636H39.4601ZM40.6135 73.1818C40.6135 73.7585 40.698 74.2673 40.8671 74.7081C41.0361 75.1456 41.283 75.4886 41.6078 75.7372C41.9326 75.9825 42.3304 76.1051 42.801 76.1051C43.2915 76.1051 43.7009 75.9759 44.029 75.7173C44.3604 75.4555 44.609 75.1042 44.7747 74.6634C44.9438 74.2192 45.0283 73.7254 45.0283 73.1818C45.0283 72.6449 44.9454 72.161 44.7797 71.7301C44.6173 71.2959 44.3704 70.9529 44.0389 70.701C43.7108 70.4458 43.2982 70.3182 42.801 70.3182C42.3237 70.3182 41.9227 70.4392 41.5979 70.6811C41.2731 70.9197 41.0278 71.2545 40.8621 71.6854C40.6964 72.1129 40.6135 72.6117 40.6135 73.1818ZM47.9913 79.8636V69.3636H49.1249V70.5767H49.2641C49.3502 70.4441 49.4696 70.2751 49.622 70.0696C49.7778 69.8608 49.9999 69.6752 50.2882 69.5128C50.5799 69.3471 50.9743 69.2642 51.4715 69.2642C52.1145 69.2642 52.6812 69.425 53.1717 69.7464C53.6623 70.0679 54.0451 70.5237 54.3202 71.1136C54.5953 71.7036 54.7328 72.3996 54.7328 73.2017C54.7328 74.0104 54.5953 74.7114 54.3202 75.3047C54.0451 75.8946 53.6639 76.352 53.1767 76.6768C52.6895 76.9983 52.1277 77.1591 51.4913 77.1591C51.0008 77.1591 50.6081 77.0779 50.3131 76.9155C50.0181 76.7498 49.7911 76.5625 49.632 76.3537C49.4729 76.1416 49.3502 75.9659 49.2641 75.8267H49.1646V79.8636H47.9913ZM49.1448 73.1818C49.1448 73.7585 49.2293 74.2673 49.3983 74.7081C49.5673 75.1456 49.8143 75.4886 50.1391 75.7372C50.4639 75.9825 50.8616 76.1051 51.3323 76.1051C51.8228 76.1051 52.2321 75.9759 52.5602 75.7173C52.8917 75.4555 53.1403 75.1042 53.306 74.6634C53.475 74.2192 53.5595 73.7254 53.5595 73.1818C53.5595 72.6449 53.4767 72.161 53.3109 71.7301C53.1485 71.2959 52.9016 70.9529 52.5702 70.701C52.2421 70.4458 51.8294 70.3182 51.3323 70.3182C50.855 70.3182 50.4539 70.4392 50.1291 70.6811C49.8043 70.9197 49.5591 71.2545 49.3933 71.6854C49.2276 72.1129 49.1448 72.6117 49.1448 73.1818ZM56.5226 77V69.3636H57.6959V77H56.5226ZM57.1192 68.0909C56.8905 68.0909 56.6933 68.013 56.5276 67.8572C56.3652 67.7015 56.284 67.5142 56.284 67.2955C56.284 67.0767 56.3652 66.8894 56.5276 66.7337C56.6933 66.5779 56.8905 66.5 57.1192 66.5C57.3479 66.5 57.5434 66.5779 57.7058 66.7337C57.8716 66.8894 57.9544 67.0767 57.9544 67.2955C57.9544 67.5142 57.8716 67.7015 57.7058 67.8572C57.5434 68.013 57.3479 68.0909 57.1192 68.0909ZM61.0182 72.4062V77H59.8449V69.3636H60.9784V70.5568H61.0778C61.2568 70.169 61.5286 69.8575 61.8932 69.6222C62.2577 69.3835 62.7284 69.2642 63.3051 69.2642C63.8221 69.2642 64.2745 69.3703 64.6623 69.5824C65.0501 69.7912 65.3517 70.1094 65.5672 70.5369C65.7826 70.9612 65.8903 71.4981 65.8903 72.1477V77H64.717V72.2273C64.717 71.6274 64.5612 71.16 64.2497 70.8253C63.9381 70.4872 63.5106 70.3182 62.967 70.3182C62.5925 70.3182 62.2577 70.3994 61.9628 70.5618C61.6711 70.7242 61.4407 70.9612 61.2717 71.2727C61.1027 71.5843 61.0182 71.9621 61.0182 72.4062ZM71.1167 80.0227C70.5499 80.0227 70.0627 79.9498 69.6551 79.804C69.2474 79.6615 68.9077 79.4725 68.6359 79.2372C68.3674 79.0052 68.1536 78.7566 67.9945 78.4915L68.9292 77.8352C69.0353 77.9744 69.1695 78.1335 69.3319 78.3125C69.4943 78.4948 69.7164 78.6522 69.9981 78.7848C70.2831 78.9207 70.656 78.9886 71.1167 78.9886C71.7332 78.9886 72.2419 78.8395 72.643 78.5412C73.044 78.2429 73.2445 77.7756 73.2445 77.1392V75.5881H73.1451C73.0589 75.7273 72.9363 75.8996 72.7772 76.1051C72.6214 76.3073 72.3961 76.4879 72.1011 76.647C71.8094 76.8028 71.415 76.8807 70.9178 76.8807C70.3014 76.8807 69.7479 76.7348 69.2573 76.4432C68.7701 76.1515 68.384 75.7273 68.0989 75.1705C67.8172 74.6136 67.6764 73.9375 67.6764 73.142C67.6764 72.3598 67.8139 71.6787 68.089 71.0987C68.3641 70.5154 68.7469 70.0646 69.2374 69.7464C69.728 69.425 70.2947 69.2642 70.9377 69.2642C71.4349 69.2642 71.8293 69.3471 72.121 69.5128C72.4159 69.6752 72.6413 69.8608 72.7971 70.0696C72.9562 70.2751 73.0788 70.4441 73.165 70.5767H73.2843V69.3636H74.4178V77.2188C74.4178 77.875 74.2687 78.4086 73.9704 78.8196C73.6754 79.2339 73.2777 79.5372 72.7772 79.7294C72.2801 79.925 71.7265 80.0227 71.1167 80.0227ZM71.0769 75.8267C71.5476 75.8267 71.9453 75.719 72.2701 75.5036C72.5949 75.2881 72.8418 74.9782 73.0109 74.5739C73.1799 74.1695 73.2644 73.6856 73.2644 73.1222C73.2644 72.572 73.1816 72.0864 73.0158 71.6655C72.8501 71.2446 72.6049 70.9148 72.2801 70.6761C71.9552 70.4375 71.5542 70.3182 71.0769 70.3182C70.5798 70.3182 70.1655 70.4441 69.834 70.696C69.5059 70.9479 69.259 71.286 69.0933 71.7102C68.9309 72.1345 68.8497 72.6051 68.8497 73.1222C68.8497 73.6525 68.9325 74.1214 69.0982 74.5291C69.2673 74.9335 69.5158 75.2517 69.844 75.4837C70.1754 75.7124 70.5864 75.8267 71.0769 75.8267ZM83.6053 77.1591C82.8894 77.1591 82.2729 76.9901 81.7559 76.652C81.2389 76.3139 80.8411 75.8482 80.5627 75.255C80.2843 74.6617 80.1451 73.9839 80.1451 73.2216C80.1451 72.446 80.2876 71.7616 80.5727 71.1683C80.861 70.5717 81.2621 70.1061 81.7758 69.7713C82.2928 69.4332 82.8961 69.2642 83.5854 69.2642C84.1224 69.2642 84.6063 69.3636 85.0372 69.5625C85.468 69.7614 85.821 70.0398 86.0961 70.3977C86.3712 70.7557 86.5419 71.1733 86.6082 71.6506H85.4349C85.3454 71.3026 85.1465 70.9943 84.8383 70.7259C84.5334 70.4541 84.1224 70.3182 83.6053 70.3182C83.1479 70.3182 82.7469 70.4375 82.4022 70.6761C82.0608 70.9115 81.794 71.2446 81.6018 71.6754C81.4129 72.103 81.3184 72.6051 81.3184 73.1818C81.3184 73.7718 81.4112 74.2855 81.5968 74.723C81.7857 75.1605 82.0509 75.5002 82.3923 75.7422C82.737 75.9841 83.1413 76.1051 83.6053 76.1051C83.9103 76.1051 84.187 76.0521 84.4356 75.946C84.6842 75.84 84.8946 75.6875 85.067 75.4886C85.2393 75.2898 85.362 75.0511 85.4349 74.7727H86.6082C86.5419 75.2235 86.3778 75.6295 86.116 75.9908C85.8575 76.3487 85.5144 76.6338 85.0869 76.8459C84.6626 77.0547 84.1688 77.1591 83.6053 77.1591ZM91.5251 77.1591C90.7893 77.1591 90.1546 76.9967 89.621 76.6719C89.0907 76.3438 88.6813 75.8864 88.393 75.2997C88.1079 74.7098 87.9654 74.0237 87.9654 73.2415C87.9654 72.4593 88.1079 71.7699 88.393 71.1733C88.6813 70.5734 89.0824 70.1061 89.5961 69.7713C90.1131 69.4332 90.7164 69.2642 91.4058 69.2642C91.8035 69.2642 92.1962 69.3305 92.584 69.4631C92.9718 69.5956 93.3248 69.8111 93.643 70.1094C93.9612 70.4044 94.2147 70.7955 94.4036 71.2827C94.5926 71.7699 94.687 72.3698 94.687 73.0824V73.5795H88.8006V72.5653H93.4938C93.4938 72.1345 93.4077 71.75 93.2353 71.4119C93.0663 71.0739 92.8243 70.8071 92.5095 70.6115C92.1979 70.416 91.83 70.3182 91.4058 70.3182C90.9384 70.3182 90.5341 70.4342 90.1927 70.6662C89.8546 70.8949 89.5944 71.1932 89.4122 71.5611C89.2299 71.929 89.1387 72.3234 89.1387 72.7443V73.4205C89.1387 73.9972 89.2381 74.486 89.437 74.8871C89.6392 75.2848 89.9193 75.5881 90.2772 75.7969C90.6352 76.0024 91.0511 76.1051 91.5251 76.1051C91.8333 76.1051 92.1117 76.062 92.3603 75.9759C92.6122 75.8864 92.8293 75.7538 93.0116 75.5781C93.1939 75.3991 93.3347 75.1771 93.4342 74.9119L94.5677 75.2301C94.4484 75.6146 94.2479 75.9527 93.9661 76.2443C93.6844 76.5327 93.3364 76.758 92.9221 76.9205C92.5078 77.0795 92.0421 77.1591 91.5251 77.1591ZM97.6451 72.4062V77H96.4718V69.3636H97.6053V70.5568H97.7048C97.8837 70.169 98.1555 69.8575 98.5201 69.6222C98.8847 69.3835 99.3553 69.2642 99.932 69.2642C100.449 69.2642 100.902 69.3703 101.289 69.5824C101.677 69.7912 101.979 70.1094 102.194 70.5369C102.41 70.9612 102.517 71.4981 102.517 72.1477V77H101.344V72.2273C101.344 71.6274 101.188 71.16 100.877 70.8253C100.565 70.4872 100.138 70.3182 99.594 70.3182C99.2194 70.3182 98.8847 70.3994 98.5897 70.5618C98.298 70.7242 98.0677 70.9612 97.8987 71.2727C97.7296 71.5843 97.6451 71.9621 97.6451 72.4062ZM107.982 69.3636V70.358H104.025V69.3636H107.982ZM105.178 67.5341H106.352V74.8125C106.352 75.1439 106.4 75.3925 106.496 75.5582C106.595 75.7206 106.721 75.83 106.874 75.8864C107.029 75.9394 107.193 75.9659 107.366 75.9659C107.495 75.9659 107.601 75.9593 107.684 75.946C107.767 75.9295 107.833 75.9162 107.883 75.9062L108.121 76.9602C108.042 76.9901 107.931 77.0199 107.788 77.0497C107.646 77.0829 107.465 77.0994 107.246 77.0994C106.915 77.0994 106.59 77.0282 106.272 76.8857C105.957 76.7431 105.695 76.526 105.487 76.2344C105.281 75.9427 105.178 75.5748 105.178 75.1307V67.5341ZM112.867 77.1591C112.131 77.1591 111.496 76.9967 110.963 76.6719C110.432 76.3438 110.023 75.8864 109.735 75.2997C109.45 74.7098 109.307 74.0237 109.307 73.2415C109.307 72.4593 109.45 71.7699 109.735 71.1733C110.023 70.5734 110.424 70.1061 110.938 69.7713C111.455 69.4332 112.058 69.2642 112.748 69.2642C113.145 69.2642 113.538 69.3305 113.926 69.4631C114.314 69.5956 114.667 69.8111 114.985 70.1094C115.303 70.4044 115.557 70.7955 115.745 71.2827C115.934 71.7699 116.029 72.3698 116.029 73.0824V73.5795H110.142V72.5653H114.836C114.836 72.1345 114.749 71.75 114.577 71.4119C114.408 71.0739 114.166 70.8071 113.851 70.6115C113.54 70.416 113.172 70.3182 112.748 70.3182C112.28 70.3182 111.876 70.4342 111.534 70.6662C111.196 70.8949 110.936 71.1932 110.754 71.5611C110.572 71.929 110.481 72.3234 110.481 72.7443V73.4205C110.481 73.9972 110.58 74.486 110.779 74.8871C110.981 75.2848 111.261 75.5881 111.619 75.7969C111.977 76.0024 112.393 76.1051 112.867 76.1051C113.175 76.1051 113.454 76.062 113.702 75.9759C113.954 75.8864 114.171 75.7538 114.353 75.5781C114.536 75.3991 114.677 75.1771 114.776 74.9119L115.909 75.2301C115.79 75.6146 115.59 75.9527 115.308 76.2443C115.026 76.5327 114.678 76.758 114.264 76.9205C113.85 77.0795 113.384 77.1591 112.867 77.1591ZM117.814 77V69.3636H118.947V70.517H119.027C119.166 70.1392 119.418 69.8326 119.782 69.5973C120.147 69.362 120.558 69.2443 121.015 69.2443C121.101 69.2443 121.209 69.246 121.338 69.2493C121.468 69.2526 121.566 69.2576 121.632 69.2642V70.4574C121.592 70.4474 121.501 70.4325 121.358 70.4126C121.219 70.3894 121.072 70.3778 120.916 70.3778C120.545 70.3778 120.213 70.4557 119.922 70.6115C119.633 70.764 119.405 70.9761 119.235 71.2479C119.07 71.5163 118.987 71.8229 118.987 72.1676V77H117.814Z" fill="#7A7A7A"/>
</svg>
