<svg width="136" height="96" viewBox="0 0 136 96" fill="none" xmlns="http://www.w3.org/2000/svg">
<path d="M77.3748 45.7502C80.1132 45.7502 82.3332 43.5302 82.3332 40.7918C82.3332 38.0534 80.1132 35.8335 77.3748 35.8335C74.6364 35.8335 72.4165 38.0534 72.4165 40.7918C72.4165 43.5302 74.6364 45.7502 77.3748 45.7502Z" stroke="#7A7A7A" stroke-width="2" stroke-linecap="round" stroke-linejoin="round"/>
<path d="M58.9583 45.7502C61.6967 45.7502 63.9167 43.5302 63.9167 40.7918C63.9167 38.0534 61.6967 35.8335 58.9583 35.8335C56.2199 35.8335 54 38.0534 54 40.7918C54 43.5302 56.2199 45.7502 58.9583 45.7502Z" stroke="#7A7A7A" stroke-width="2" stroke-linecap="round" stroke-linejoin="round"/>
<path d="M72.4167 24.4998C73.1991 24.4998 73.8333 23.8656 73.8333 23.0832C73.8333 22.3008 73.1991 21.6665 72.4167 21.6665C71.6343 21.6665 71 22.3008 71 23.0832C71 23.8656 71.6343 24.4998 72.4167 24.4998Z" stroke="#7A7A7A" stroke-width="2" stroke-linecap="round" stroke-linejoin="round"/>
<path d="M68.1665 40.7918V35.8335L63.9165 31.5835L69.5832 27.3335L72.4165 31.5835H75.2498" stroke="#7A7A7A" stroke-width="2" stroke-linecap="round" stroke-linejoin="round"/>
<path d="M56.4676 69.3636C56.408 68.8598 56.166 68.4688 55.7418 68.1903C55.3175 67.9119 54.7972 67.7727 54.1807 67.7727C53.73 67.7727 53.3355 67.8456 52.9975 67.9915C52.6627 68.1373 52.4009 68.3378 52.212 68.593C52.0264 68.8482 51.9335 69.1383 51.9335 69.4631C51.9335 69.7348 51.9982 69.9685 52.1274 70.1641C52.26 70.3563 52.4291 70.517 52.6345 70.6463C52.84 70.7723 53.0555 70.8767 53.2809 70.9595C53.5062 71.0391 53.7134 71.1037 53.9023 71.1534L54.9364 71.4318C55.2015 71.5014 55.4965 71.5975 55.8213 71.7202C56.1495 71.8428 56.4627 72.0102 56.761 72.2223C57.0626 72.4311 57.3112 72.6996 57.5067 73.0277C57.7023 73.3558 57.8 73.7585 57.8 74.2358C57.8 74.786 57.6559 75.2831 57.3675 75.7273C57.0825 76.1714 56.6648 76.5244 56.1147 76.7862C55.5678 77.0481 54.9032 77.179 54.121 77.179C53.3919 77.179 52.7605 77.0613 52.2269 76.826C51.6966 76.5907 51.279 76.2625 50.974 75.8416C50.6724 75.4207 50.5017 74.9318 50.462 74.375H51.7347C51.7678 74.7595 51.8971 75.0777 52.1225 75.3295C52.3512 75.5781 52.6395 75.7637 52.9875 75.8864C53.3389 76.0057 53.7167 76.0653 54.121 76.0653C54.5917 76.0653 55.0143 75.9891 55.3888 75.8366C55.7633 75.6809 56.06 75.4654 56.2787 75.1903C56.4975 74.9119 56.6068 74.5871 56.6068 74.2159C56.6068 73.8778 56.5124 73.6027 56.3235 73.3906C56.1345 73.1785 55.886 73.0062 55.5777 72.8736C55.2695 72.741 54.9364 72.625 54.5784 72.5256L53.3256 72.1676C52.5301 71.9389 51.9004 71.6125 51.4364 71.1882C50.9724 70.764 50.7404 70.2088 50.7404 69.5227C50.7404 68.9527 50.8945 68.4555 51.2027 68.0312C51.5143 67.6037 51.9319 67.2723 52.4556 67.0369C52.9826 66.7983 53.5709 66.679 54.2205 66.679C54.8767 66.679 55.4601 66.7966 55.9705 67.032C56.4809 67.264 56.8853 67.5821 57.1835 67.9865C57.4852 68.3909 57.6443 68.8499 57.6608 69.3636H56.4676ZM59.6681 79.8636V69.3636H60.8016V70.5767H60.9408C61.027 70.4441 61.1463 70.2751 61.2988 70.0696C61.4546 69.8608 61.6766 69.6752 61.965 69.5128C62.2566 69.3471 62.6511 69.2642 63.1482 69.2642C63.7912 69.2642 64.358 69.425 64.8485 69.7464C65.339 70.0679 65.7218 70.5237 65.9969 71.1136C66.272 71.7036 66.4096 72.3996 66.4096 73.2017C66.4096 74.0104 66.272 74.7114 65.9969 75.3047C65.7218 75.8946 65.3407 76.352 64.8535 76.6768C64.3663 76.9983 63.8045 77.1591 63.1681 77.1591C62.6776 77.1591 62.2848 77.0779 61.9898 76.9155C61.6949 76.7498 61.4678 76.5625 61.3087 76.3537C61.1496 76.1416 61.027 75.9659 60.9408 75.8267H60.8414V79.8636H59.6681ZM60.8215 73.1818C60.8215 73.7585 60.906 74.2673 61.0751 74.7081C61.2441 75.1456 61.491 75.4886 61.8158 75.7372C62.1406 75.9825 62.5384 76.1051 63.009 76.1051C63.4995 76.1051 63.9089 75.9759 64.237 75.7173C64.5684 75.4555 64.817 75.1042 64.9827 74.6634C65.1518 74.2192 65.2363 73.7254 65.2363 73.1818C65.2363 72.6449 65.1534 72.161 64.9877 71.7301C64.8253 71.2959 64.5784 70.9529 64.2469 70.701C63.9188 70.4458 63.5062 70.3182 63.009 70.3182C62.5317 70.3182 62.1307 70.4392 61.8059 70.6811C61.4811 70.9197 61.2358 71.2545 61.0701 71.6854C60.9044 72.1129 60.8215 72.6117 60.8215 73.1818ZM71.3016 77.1591C70.6122 77.1591 70.0074 76.995 69.487 76.6669C68.9699 76.3388 68.5656 75.8797 68.2739 75.2898C67.9856 74.6998 67.8414 74.0104 67.8414 73.2216C67.8414 72.4261 67.9856 71.7318 68.2739 71.1385C68.5656 70.5452 68.9699 70.0845 69.487 69.7564C70.0074 69.4283 70.6122 69.2642 71.3016 69.2642C71.991 69.2642 72.5942 69.4283 73.1113 69.7564C73.6316 70.0845 74.036 70.5452 74.3244 71.1385C74.616 71.7318 74.7619 72.4261 74.7619 73.2216C74.7619 74.0104 74.616 74.6998 74.3244 75.2898C74.036 75.8797 73.6316 76.3388 73.1113 76.6669C72.5942 76.995 71.991 77.1591 71.3016 77.1591ZM71.3016 76.1051C71.8253 76.1051 72.2562 75.9709 72.5942 75.7024C72.9323 75.4339 73.1825 75.081 73.3449 74.6435C73.5074 74.206 73.5886 73.732 73.5886 73.2216C73.5886 72.7112 73.5074 72.2356 73.3449 71.7947C73.1825 71.3539 72.9323 70.9976 72.5942 70.7259C72.2562 70.4541 71.8253 70.3182 71.3016 70.3182C70.778 70.3182 70.3471 70.4541 70.009 70.7259C69.6709 70.9976 69.4207 71.3539 69.2583 71.7947C69.0959 72.2356 69.0147 72.7112 69.0147 73.2216C69.0147 73.732 69.0959 74.206 69.2583 74.6435C69.4207 75.081 69.6709 75.4339 70.009 75.7024C70.3471 75.9709 70.778 76.1051 71.3016 76.1051ZM76.5529 77V69.3636H77.6864V70.517H77.7659C77.9051 70.1392 78.157 69.8326 78.5216 69.5973C78.8862 69.362 79.2972 69.2443 79.7546 69.2443C79.8407 69.2443 79.9485 69.246 80.0777 69.2493C80.207 69.2526 80.3048 69.2576 80.371 69.2642V70.4574C80.3313 70.4474 80.2401 70.4325 80.0976 70.4126C79.9584 70.3894 79.8109 70.3778 79.6551 70.3778C79.2839 70.3778 78.9525 70.4557 78.6608 70.6115C78.3725 70.764 78.1438 70.9761 77.9747 71.2479C77.809 71.5163 77.7262 71.8229 77.7262 72.1676V77H76.5529ZM85.5614 69.3636V70.358H81.604V69.3636H85.5614ZM82.7574 67.5341H83.9307V74.8125C83.9307 75.1439 83.9788 75.3925 84.0749 75.5582C84.1743 75.7206 84.3003 75.83 84.4527 75.8864C84.6085 75.9394 84.7726 75.9659 84.9449 75.9659C85.0742 75.9659 85.1802 75.9593 85.2631 75.946C85.346 75.9295 85.4122 75.9162 85.462 75.9062L85.7006 76.9602C85.621 76.9901 85.51 77.0199 85.3675 77.0497C85.225 77.0829 85.0443 77.0994 84.8256 77.0994C84.4942 77.0994 84.1693 77.0282 83.8512 76.8857C83.5363 76.7431 83.2745 76.526 83.0657 76.2344C82.8602 75.9427 82.7574 75.5748 82.7574 75.1307V67.5341Z" fill="#7A7A7A"/>
</svg>
